<?xml version="1.0" encoding="utf-8" standalone="no"?>
<!DOCTYPE svg PUBLIC "-//W3C//DTD SVG 1.1//EN"
  "http://www.w3.org/Graphics/SVG/1.1/DTD/svg11.dtd">
<!-- Created with matplotlib (https://matplotlib.org/) -->
<svg height="262.19625pt" version="1.1" viewBox="0 0 392.14375 262.19625" width="392.14375pt" xmlns="http://www.w3.org/2000/svg" xmlns:xlink="http://www.w3.org/1999/xlink">
 <metadata>
  <rdf:RDF xmlns:cc="http://creativecommons.org/ns#" xmlns:dc="http://purl.org/dc/elements/1.1/" xmlns:rdf="http://www.w3.org/1999/02/22-rdf-syntax-ns#">
   <cc:Work>
    <dc:type rdf:resource="http://purl.org/dc/dcmitype/StillImage"/>
    <dc:date>2021-01-08T09:13:06.139421</dc:date>
    <dc:format>image/svg+xml</dc:format>
    <dc:creator>
     <cc:Agent>
      <dc:title>Matplotlib v3.3.0, https://matplotlib.org/</dc:title>
     </cc:Agent>
    </dc:creator>
   </cc:Work>
  </rdf:RDF>
 </metadata>
 <defs>
  <style type="text/css">*{stroke-linecap:butt;stroke-linejoin:round;}</style>
 </defs>
 <g id="figure_1">
  <g id="patch_1">
   <path d="M 0 262.19625 
L 392.14375 262.19625 
L 392.14375 0 
L 0 0 
z
" style="fill:none;"/>
  </g>
  <g id="axes_1">
   <g id="patch_2">
    <path d="M 50.14375 224.64 
L 384.94375 224.64 
L 384.94375 7.2 
L 50.14375 7.2 
z
" style="fill:#ffffff;"/>
   </g>
   <g id="patch_3">
    <path clip-path="url(#p9c95a379d8)" d="M 65.361932 224.64 
L 67.941285 224.64 
L 67.941285 17.554286 
L 65.361932 17.554286 
z
" style="fill:#1f77b4;fill-opacity:0.75;stroke:#000000;stroke-linejoin:miter;stroke-width:0.257935;"/>
   </g>
   <g id="patch_4">
    <path clip-path="url(#p9c95a379d8)" d="M 67.941285 224.64 
L 70.520638 224.64 
L 70.520638 45.899011 
L 67.941285 45.899011 
z
" style="fill:#1f77b4;fill-opacity:0.75;stroke:#000000;stroke-linejoin:miter;stroke-width:0.257935;"/>
   </g>
   <g id="patch_5">
    <path clip-path="url(#p9c95a379d8)" d="M 70.520638 224.64 
L 73.09999 224.64 
L 73.09999 57.53304 
L 70.520638 57.53304 
z
" style="fill:#1f77b4;fill-opacity:0.75;stroke:#000000;stroke-linejoin:miter;stroke-width:0.257935;"/>
   </g>
   <g id="patch_6">
    <path clip-path="url(#p9c95a379d8)" d="M 73.09999 224.64 
L 75.679343 224.64 
L 75.679343 78.262764 
L 73.09999 78.262764 
z
" style="fill:#1f77b4;fill-opacity:0.75;stroke:#000000;stroke-linejoin:miter;stroke-width:0.257935;"/>
   </g>
   <g id="patch_7">
    <path clip-path="url(#p9c95a379d8)" d="M 75.679343 224.64 
L 78.258696 224.64 
L 78.258696 88.20457 
L 75.679343 88.20457 
z
" style="fill:#1f77b4;fill-opacity:0.75;stroke:#000000;stroke-linejoin:miter;stroke-width:0.257935;"/>
   </g>
   <g id="patch_8">
    <path clip-path="url(#p9c95a379d8)" d="M 78.258696 224.64 
L 80.838049 224.64 
L 80.838049 96.454154 
L 78.258696 96.454154 
z
" style="fill:#1f77b4;fill-opacity:0.75;stroke:#000000;stroke-linejoin:miter;stroke-width:0.257935;"/>
   </g>
   <g id="patch_9">
    <path clip-path="url(#p9c95a379d8)" d="M 80.838049 224.64 
L 83.417402 224.64 
L 83.417402 112.107211 
L 80.838049 112.107211 
z
" style="fill:#1f77b4;fill-opacity:0.75;stroke:#000000;stroke-linejoin:miter;stroke-width:0.257935;"/>
   </g>
   <g id="patch_10">
    <path clip-path="url(#p9c95a379d8)" d="M 83.417402 224.64 
L 85.996755 224.64 
L 85.996755 118.241518 
L 83.417402 118.241518 
z
" style="fill:#1f77b4;fill-opacity:0.75;stroke:#000000;stroke-linejoin:miter;stroke-width:0.257935;"/>
   </g>
   <g id="patch_11">
    <path clip-path="url(#p9c95a379d8)" d="M 85.996755 224.64 
L 88.576107 224.64 
L 88.576107 135.586797 
L 85.996755 135.586797 
z
" style="fill:#1f77b4;fill-opacity:0.75;stroke:#000000;stroke-linejoin:miter;stroke-width:0.257935;"/>
   </g>
   <g id="patch_12">
    <path clip-path="url(#p9c95a379d8)" d="M 88.576107 224.64 
L 91.15546 224.64 
L 91.15546 144.259437 
L 88.576107 144.259437 
z
" style="fill:#1f77b4;fill-opacity:0.75;stroke:#000000;stroke-linejoin:miter;stroke-width:0.257935;"/>
   </g>
   <g id="patch_13">
    <path clip-path="url(#p9c95a379d8)" d="M 91.15546 224.64 
L 93.734813 224.64 
L 93.734813 152.509021 
L 91.15546 152.509021 
z
" style="fill:#1f77b4;fill-opacity:0.75;stroke:#000000;stroke-linejoin:miter;stroke-width:0.257935;"/>
   </g>
   <g id="patch_14">
    <path clip-path="url(#p9c95a379d8)" d="M 93.734813 224.64 
L 96.314166 224.64 
L 96.314166 156.951105 
L 93.734813 156.951105 
z
" style="fill:#1f77b4;fill-opacity:0.75;stroke:#000000;stroke-linejoin:miter;stroke-width:0.257935;"/>
   </g>
   <g id="patch_15">
    <path clip-path="url(#p9c95a379d8)" d="M 96.314166 224.64 
L 98.893519 224.64 
L 98.893519 169.642773 
L 96.314166 169.642773 
z
" style="fill:#1f77b4;fill-opacity:0.75;stroke:#000000;stroke-linejoin:miter;stroke-width:0.257935;"/>
   </g>
   <g id="patch_16">
    <path clip-path="url(#p9c95a379d8)" d="M 98.893519 224.64 
L 101.472872 224.64 
L 101.472872 173.873328 
L 98.893519 173.873328 
z
" style="fill:#1f77b4;fill-opacity:0.75;stroke:#000000;stroke-linejoin:miter;stroke-width:0.257935;"/>
   </g>
   <g id="patch_17">
    <path clip-path="url(#p9c95a379d8)" d="M 101.472872 224.64 
L 104.052225 224.64 
L 104.052225 167.315967 
L 101.472872 167.315967 
z
" style="fill:#1f77b4;fill-opacity:0.75;stroke:#000000;stroke-linejoin:miter;stroke-width:0.257935;"/>
   </g>
   <g id="patch_18">
    <path clip-path="url(#p9c95a379d8)" d="M 104.052225 224.64 
L 106.631577 224.64 
L 106.631577 172.181106 
L 104.052225 172.181106 
z
" style="fill:#1f77b4;fill-opacity:0.75;stroke:#000000;stroke-linejoin:miter;stroke-width:0.257935;"/>
   </g>
   <g id="patch_19">
    <path clip-path="url(#p9c95a379d8)" d="M 106.631577 224.64 
L 109.21093 224.64 
L 109.21093 189.10333 
L 106.631577 189.10333 
z
" style="fill:#1f77b4;fill-opacity:0.75;stroke:#000000;stroke-linejoin:miter;stroke-width:0.257935;"/>
   </g>
   <g id="patch_20">
    <path clip-path="url(#p9c95a379d8)" d="M 109.21093 224.64 
L 111.790283 224.64 
L 111.790283 186.564996 
L 109.21093 186.564996 
z
" style="fill:#1f77b4;fill-opacity:0.75;stroke:#000000;stroke-linejoin:miter;stroke-width:0.257935;"/>
   </g>
   <g id="patch_21">
    <path clip-path="url(#p9c95a379d8)" d="M 111.790283 224.64 
L 114.369636 224.64 
L 114.369636 189.737913 
L 111.790283 189.737913 
z
" style="fill:#1f77b4;fill-opacity:0.75;stroke:#000000;stroke-linejoin:miter;stroke-width:0.257935;"/>
   </g>
   <g id="patch_22">
    <path clip-path="url(#p9c95a379d8)" d="M 114.369636 224.64 
L 116.948989 224.64 
L 116.948989 190.160969 
L 114.369636 190.160969 
z
" style="fill:#1f77b4;fill-opacity:0.75;stroke:#000000;stroke-linejoin:miter;stroke-width:0.257935;"/>
   </g>
   <g id="patch_23">
    <path clip-path="url(#p9c95a379d8)" d="M 116.948989 224.64 
L 119.528342 224.64 
L 119.528342 202.641109 
L 116.948989 202.641109 
z
" style="fill:#1f77b4;fill-opacity:0.75;stroke:#000000;stroke-linejoin:miter;stroke-width:0.257935;"/>
   </g>
   <g id="patch_24">
    <path clip-path="url(#p9c95a379d8)" d="M 119.528342 224.64 
L 122.107695 224.64 
L 122.107695 200.102775 
L 119.528342 200.102775 
z
" style="fill:#1f77b4;fill-opacity:0.75;stroke:#000000;stroke-linejoin:miter;stroke-width:0.257935;"/>
   </g>
   <g id="patch_25">
    <path clip-path="url(#p9c95a379d8)" d="M 122.107695 224.64 
L 124.687047 224.64 
L 124.687047 207.506248 
L 122.107695 207.506248 
z
" style="fill:#1f77b4;fill-opacity:0.75;stroke:#000000;stroke-linejoin:miter;stroke-width:0.257935;"/>
   </g>
   <g id="patch_26">
    <path clip-path="url(#p9c95a379d8)" d="M 124.687047 224.64 
L 127.2664 224.64 
L 127.2664 201.58347 
L 124.687047 201.58347 
z
" style="fill:#1f77b4;fill-opacity:0.75;stroke:#000000;stroke-linejoin:miter;stroke-width:0.257935;"/>
   </g>
   <g id="patch_27">
    <path clip-path="url(#p9c95a379d8)" d="M 127.2664 224.64 
L 129.845753 224.64 
L 129.845753 209.621526 
L 127.2664 209.621526 
z
" style="fill:#1f77b4;fill-opacity:0.75;stroke:#000000;stroke-linejoin:miter;stroke-width:0.257935;"/>
   </g>
   <g id="patch_28">
    <path clip-path="url(#p9c95a379d8)" d="M 129.845753 224.64 
L 132.425106 224.64 
L 132.425106 210.679165 
L 129.845753 210.679165 
z
" style="fill:#1f77b4;fill-opacity:0.75;stroke:#000000;stroke-linejoin:miter;stroke-width:0.257935;"/>
   </g>
   <g id="patch_29">
    <path clip-path="url(#p9c95a379d8)" d="M 132.425106 224.64 
L 135.004459 224.64 
L 135.004459 213.640555 
L 132.425106 213.640555 
z
" style="fill:#1f77b4;fill-opacity:0.75;stroke:#000000;stroke-linejoin:miter;stroke-width:0.257935;"/>
   </g>
   <g id="patch_30">
    <path clip-path="url(#p9c95a379d8)" d="M 135.004459 224.64 
L 137.583812 224.64 
L 137.583812 210.679165 
L 135.004459 210.679165 
z
" style="fill:#1f77b4;fill-opacity:0.75;stroke:#000000;stroke-linejoin:miter;stroke-width:0.257935;"/>
   </g>
   <g id="patch_31">
    <path clip-path="url(#p9c95a379d8)" d="M 137.583812 224.64 
L 140.163164 224.64 
L 140.163164 213.640555 
L 137.583812 213.640555 
z
" style="fill:#1f77b4;fill-opacity:0.75;stroke:#000000;stroke-linejoin:miter;stroke-width:0.257935;"/>
   </g>
   <g id="patch_32">
    <path clip-path="url(#p9c95a379d8)" d="M 140.163164 224.64 
L 142.742517 224.64 
L 142.742517 213.852082 
L 140.163164 213.852082 
z
" style="fill:#1f77b4;fill-opacity:0.75;stroke:#000000;stroke-linejoin:miter;stroke-width:0.257935;"/>
   </g>
   <g id="patch_33">
    <path clip-path="url(#p9c95a379d8)" d="M 142.742517 224.64 
L 145.32187 224.64 
L 145.32187 213.005971 
L 142.742517 213.005971 
z
" style="fill:#1f77b4;fill-opacity:0.75;stroke:#000000;stroke-linejoin:miter;stroke-width:0.257935;"/>
   </g>
   <g id="patch_34">
    <path clip-path="url(#p9c95a379d8)" d="M 145.32187 224.64 
L 147.901223 224.64 
L 147.901223 214.06361 
L 145.32187 214.06361 
z
" style="fill:#1f77b4;fill-opacity:0.75;stroke:#000000;stroke-linejoin:miter;stroke-width:0.257935;"/>
   </g>
   <g id="patch_35">
    <path clip-path="url(#p9c95a379d8)" d="M 147.901223 224.64 
L 150.480576 224.64 
L 150.480576 216.390416 
L 147.901223 216.390416 
z
" style="fill:#1f77b4;fill-opacity:0.75;stroke:#000000;stroke-linejoin:miter;stroke-width:0.257935;"/>
   </g>
   <g id="patch_36">
    <path clip-path="url(#p9c95a379d8)" d="M 150.480576 224.64 
L 153.059929 224.64 
L 153.059929 219.351805 
L 150.480576 219.351805 
z
" style="fill:#1f77b4;fill-opacity:0.75;stroke:#000000;stroke-linejoin:miter;stroke-width:0.257935;"/>
   </g>
   <g id="patch_37">
    <path clip-path="url(#p9c95a379d8)" d="M 153.059929 224.64 
L 155.639282 224.64 
L 155.639282 218.294166 
L 153.059929 218.294166 
z
" style="fill:#1f77b4;fill-opacity:0.75;stroke:#000000;stroke-linejoin:miter;stroke-width:0.257935;"/>
   </g>
   <g id="patch_38">
    <path clip-path="url(#p9c95a379d8)" d="M 155.639282 224.64 
L 158.218634 224.64 
L 158.218634 218.505694 
L 155.639282 218.505694 
z
" style="fill:#1f77b4;fill-opacity:0.75;stroke:#000000;stroke-linejoin:miter;stroke-width:0.257935;"/>
   </g>
   <g id="patch_39">
    <path clip-path="url(#p9c95a379d8)" d="M 158.218634 224.64 
L 160.797987 224.64 
L 160.797987 220.409444 
L 158.218634 220.409444 
z
" style="fill:#1f77b4;fill-opacity:0.75;stroke:#000000;stroke-linejoin:miter;stroke-width:0.257935;"/>
   </g>
   <g id="patch_40">
    <path clip-path="url(#p9c95a379d8)" d="M 160.797987 224.64 
L 163.37734 224.64 
L 163.37734 220.620972 
L 160.797987 220.620972 
z
" style="fill:#1f77b4;fill-opacity:0.75;stroke:#000000;stroke-linejoin:miter;stroke-width:0.257935;"/>
   </g>
   <g id="patch_41">
    <path clip-path="url(#p9c95a379d8)" d="M 163.37734 224.64 
L 165.956693 224.64 
L 165.956693 221.467083 
L 163.37734 221.467083 
z
" style="fill:#1f77b4;fill-opacity:0.75;stroke:#000000;stroke-linejoin:miter;stroke-width:0.257935;"/>
   </g>
   <g id="patch_42">
    <path clip-path="url(#p9c95a379d8)" d="M 165.956693 224.64 
L 168.536046 224.64 
L 168.536046 220.8325 
L 165.956693 220.8325 
z
" style="fill:#1f77b4;fill-opacity:0.75;stroke:#000000;stroke-linejoin:miter;stroke-width:0.257935;"/>
   </g>
   <g id="patch_43">
    <path clip-path="url(#p9c95a379d8)" d="M 168.536046 224.64 
L 171.115399 224.64 
L 171.115399 221.467083 
L 168.536046 221.467083 
z
" style="fill:#1f77b4;fill-opacity:0.75;stroke:#000000;stroke-linejoin:miter;stroke-width:0.257935;"/>
   </g>
   <g id="patch_44">
    <path clip-path="url(#p9c95a379d8)" d="M 171.115399 224.64 
L 173.694752 224.64 
L 173.694752 220.620972 
L 171.115399 220.620972 
z
" style="fill:#1f77b4;fill-opacity:0.75;stroke:#000000;stroke-linejoin:miter;stroke-width:0.257935;"/>
   </g>
   <g id="patch_45">
    <path clip-path="url(#p9c95a379d8)" d="M 173.694752 224.64 
L 176.274104 224.64 
L 176.274104 222.101666 
L 173.694752 222.101666 
z
" style="fill:#1f77b4;fill-opacity:0.75;stroke:#000000;stroke-linejoin:miter;stroke-width:0.257935;"/>
   </g>
   <g id="patch_46">
    <path clip-path="url(#p9c95a379d8)" d="M 176.274104 224.64 
L 178.853457 224.64 
L 178.853457 222.73625 
L 176.274104 222.73625 
z
" style="fill:#1f77b4;fill-opacity:0.75;stroke:#000000;stroke-linejoin:miter;stroke-width:0.257935;"/>
   </g>
   <g id="patch_47">
    <path clip-path="url(#p9c95a379d8)" d="M 178.853457 224.64 
L 181.43281 224.64 
L 181.43281 223.370833 
L 178.853457 223.370833 
z
" style="fill:#1f77b4;fill-opacity:0.75;stroke:#000000;stroke-linejoin:miter;stroke-width:0.257935;"/>
   </g>
   <g id="patch_48">
    <path clip-path="url(#p9c95a379d8)" d="M 181.43281 224.64 
L 184.012163 224.64 
L 184.012163 223.793889 
L 181.43281 223.793889 
z
" style="fill:#1f77b4;fill-opacity:0.75;stroke:#000000;stroke-linejoin:miter;stroke-width:0.257935;"/>
   </g>
   <g id="patch_49">
    <path clip-path="url(#p9c95a379d8)" d="M 184.012163 224.64 
L 186.591516 224.64 
L 186.591516 222.101666 
L 184.012163 222.101666 
z
" style="fill:#1f77b4;fill-opacity:0.75;stroke:#000000;stroke-linejoin:miter;stroke-width:0.257935;"/>
   </g>
   <g id="patch_50">
    <path clip-path="url(#p9c95a379d8)" d="M 186.591516 224.64 
L 189.170869 224.64 
L 189.170869 224.428472 
L 186.591516 224.428472 
z
" style="fill:#1f77b4;fill-opacity:0.75;stroke:#000000;stroke-linejoin:miter;stroke-width:0.257935;"/>
   </g>
   <g id="patch_51">
    <path clip-path="url(#p9c95a379d8)" d="M 189.170869 224.64 
L 191.750221 224.64 
L 191.750221 223.582361 
L 189.170869 223.582361 
z
" style="fill:#1f77b4;fill-opacity:0.75;stroke:#000000;stroke-linejoin:miter;stroke-width:0.257935;"/>
   </g>
   <g id="patch_52">
    <path clip-path="url(#p9c95a379d8)" d="M 191.750221 224.64 
L 194.329574 224.64 
L 194.329574 222.524722 
L 191.750221 222.524722 
z
" style="fill:#1f77b4;fill-opacity:0.75;stroke:#000000;stroke-linejoin:miter;stroke-width:0.257935;"/>
   </g>
   <g id="patch_53">
    <path clip-path="url(#p9c95a379d8)" d="M 194.329574 224.64 
L 196.908927 224.64 
L 196.908927 223.793889 
L 194.329574 223.793889 
z
" style="fill:#1f77b4;fill-opacity:0.75;stroke:#000000;stroke-linejoin:miter;stroke-width:0.257935;"/>
   </g>
   <g id="patch_54">
    <path clip-path="url(#p9c95a379d8)" d="M 196.908927 224.64 
L 199.48828 224.64 
L 199.48828 223.370833 
L 196.908927 223.370833 
z
" style="fill:#1f77b4;fill-opacity:0.75;stroke:#000000;stroke-linejoin:miter;stroke-width:0.257935;"/>
   </g>
   <g id="patch_55">
    <path clip-path="url(#p9c95a379d8)" d="M 199.48828 224.64 
L 202.067633 224.64 
L 202.067633 223.370833 
L 199.48828 223.370833 
z
" style="fill:#1f77b4;fill-opacity:0.75;stroke:#000000;stroke-linejoin:miter;stroke-width:0.257935;"/>
   </g>
   <g id="patch_56">
    <path clip-path="url(#p9c95a379d8)" d="M 202.067633 224.64 
L 204.646986 224.64 
L 204.646986 224.005417 
L 202.067633 224.005417 
z
" style="fill:#1f77b4;fill-opacity:0.75;stroke:#000000;stroke-linejoin:miter;stroke-width:0.257935;"/>
   </g>
   <g id="patch_57">
    <path clip-path="url(#p9c95a379d8)" d="M 204.646986 224.64 
L 207.226339 224.64 
L 207.226339 223.582361 
L 204.646986 223.582361 
z
" style="fill:#1f77b4;fill-opacity:0.75;stroke:#000000;stroke-linejoin:miter;stroke-width:0.257935;"/>
   </g>
   <g id="patch_58">
    <path clip-path="url(#p9c95a379d8)" d="M 207.226339 224.64 
L 209.805691 224.64 
L 209.805691 224.005417 
L 207.226339 224.005417 
z
" style="fill:#1f77b4;fill-opacity:0.75;stroke:#000000;stroke-linejoin:miter;stroke-width:0.257935;"/>
   </g>
   <g id="patch_59">
    <path clip-path="url(#p9c95a379d8)" d="M 209.805691 224.64 
L 212.385044 224.64 
L 212.385044 224.005417 
L 209.805691 224.005417 
z
" style="fill:#1f77b4;fill-opacity:0.75;stroke:#000000;stroke-linejoin:miter;stroke-width:0.257935;"/>
   </g>
   <g id="patch_60">
    <path clip-path="url(#p9c95a379d8)" d="M 212.385044 224.64 
L 214.964397 224.64 
L 214.964397 224.216944 
L 212.385044 224.216944 
z
" style="fill:#1f77b4;fill-opacity:0.75;stroke:#000000;stroke-linejoin:miter;stroke-width:0.257935;"/>
   </g>
   <g id="patch_61">
    <path clip-path="url(#p9c95a379d8)" d="M 214.964397 224.64 
L 217.54375 224.64 
L 217.54375 224.005417 
L 214.964397 224.005417 
z
" style="fill:#1f77b4;fill-opacity:0.75;stroke:#000000;stroke-linejoin:miter;stroke-width:0.257935;"/>
   </g>
   <g id="patch_62">
    <path clip-path="url(#p9c95a379d8)" d="M 217.54375 224.64 
L 220.123103 224.64 
L 220.123103 224.428472 
L 217.54375 224.428472 
z
" style="fill:#1f77b4;fill-opacity:0.75;stroke:#000000;stroke-linejoin:miter;stroke-width:0.257935;"/>
   </g>
   <g id="patch_63">
    <path clip-path="url(#p9c95a379d8)" d="M 220.123103 224.64 
L 222.702456 224.64 
L 222.702456 224.005417 
L 220.123103 224.005417 
z
" style="fill:#1f77b4;fill-opacity:0.75;stroke:#000000;stroke-linejoin:miter;stroke-width:0.257935;"/>
   </g>
   <g id="patch_64">
    <path clip-path="url(#p9c95a379d8)" d="M 222.702456 224.64 
L 225.281809 224.64 
L 225.281809 224.216944 
L 222.702456 224.216944 
z
" style="fill:#1f77b4;fill-opacity:0.75;stroke:#000000;stroke-linejoin:miter;stroke-width:0.257935;"/>
   </g>
   <g id="patch_65">
    <path clip-path="url(#p9c95a379d8)" d="M 225.281809 224.64 
L 227.861161 224.64 
L 227.861161 224.64 
L 225.281809 224.64 
z
" style="fill:#1f77b4;fill-opacity:0.75;stroke:#000000;stroke-linejoin:miter;stroke-width:0.257935;"/>
   </g>
   <g id="patch_66">
    <path clip-path="url(#p9c95a379d8)" d="M 227.861161 224.64 
L 230.440514 224.64 
L 230.440514 224.64 
L 227.861161 224.64 
z
" style="fill:#1f77b4;fill-opacity:0.75;stroke:#000000;stroke-linejoin:miter;stroke-width:0.257935;"/>
   </g>
   <g id="patch_67">
    <path clip-path="url(#p9c95a379d8)" d="M 230.440514 224.64 
L 233.019867 224.64 
L 233.019867 224.64 
L 230.440514 224.64 
z
" style="fill:#1f77b4;fill-opacity:0.75;stroke:#000000;stroke-linejoin:miter;stroke-width:0.257935;"/>
   </g>
   <g id="patch_68">
    <path clip-path="url(#p9c95a379d8)" d="M 233.019867 224.64 
L 235.59922 224.64 
L 235.59922 224.64 
L 233.019867 224.64 
z
" style="fill:#1f77b4;fill-opacity:0.75;stroke:#000000;stroke-linejoin:miter;stroke-width:0.257935;"/>
   </g>
   <g id="patch_69">
    <path clip-path="url(#p9c95a379d8)" d="M 235.59922 224.64 
L 238.178573 224.64 
L 238.178573 224.428472 
L 235.59922 224.428472 
z
" style="fill:#1f77b4;fill-opacity:0.75;stroke:#000000;stroke-linejoin:miter;stroke-width:0.257935;"/>
   </g>
   <g id="patch_70">
    <path clip-path="url(#p9c95a379d8)" d="M 238.178573 224.64 
L 240.757926 224.64 
L 240.757926 224.216944 
L 238.178573 224.216944 
z
" style="fill:#1f77b4;fill-opacity:0.75;stroke:#000000;stroke-linejoin:miter;stroke-width:0.257935;"/>
   </g>
   <g id="patch_71">
    <path clip-path="url(#p9c95a379d8)" d="M 240.757926 224.64 
L 243.337279 224.64 
L 243.337279 224.64 
L 240.757926 224.64 
z
" style="fill:#1f77b4;fill-opacity:0.75;stroke:#000000;stroke-linejoin:miter;stroke-width:0.257935;"/>
   </g>
   <g id="patch_72">
    <path clip-path="url(#p9c95a379d8)" d="M 243.337279 224.64 
L 245.916631 224.64 
L 245.916631 224.216944 
L 243.337279 224.216944 
z
" style="fill:#1f77b4;fill-opacity:0.75;stroke:#000000;stroke-linejoin:miter;stroke-width:0.257935;"/>
   </g>
   <g id="patch_73">
    <path clip-path="url(#p9c95a379d8)" d="M 245.916631 224.64 
L 248.495984 224.64 
L 248.495984 224.428472 
L 245.916631 224.428472 
z
" style="fill:#1f77b4;fill-opacity:0.75;stroke:#000000;stroke-linejoin:miter;stroke-width:0.257935;"/>
   </g>
   <g id="patch_74">
    <path clip-path="url(#p9c95a379d8)" d="M 248.495984 224.64 
L 251.075337 224.64 
L 251.075337 224.64 
L 248.495984 224.64 
z
" style="fill:#1f77b4;fill-opacity:0.75;stroke:#000000;stroke-linejoin:miter;stroke-width:0.257935;"/>
   </g>
   <g id="patch_75">
    <path clip-path="url(#p9c95a379d8)" d="M 251.075337 224.64 
L 253.65469 224.64 
L 253.65469 224.428472 
L 251.075337 224.428472 
z
" style="fill:#1f77b4;fill-opacity:0.75;stroke:#000000;stroke-linejoin:miter;stroke-width:0.257935;"/>
   </g>
   <g id="patch_76">
    <path clip-path="url(#p9c95a379d8)" d="M 253.65469 224.64 
L 256.234043 224.64 
L 256.234043 224.216944 
L 253.65469 224.216944 
z
" style="fill:#1f77b4;fill-opacity:0.75;stroke:#000000;stroke-linejoin:miter;stroke-width:0.257935;"/>
   </g>
   <g id="patch_77">
    <path clip-path="url(#p9c95a379d8)" d="M 256.234043 224.64 
L 258.813396 224.64 
L 258.813396 224.428472 
L 256.234043 224.428472 
z
" style="fill:#1f77b4;fill-opacity:0.75;stroke:#000000;stroke-linejoin:miter;stroke-width:0.257935;"/>
   </g>
   <g id="patch_78">
    <path clip-path="url(#p9c95a379d8)" d="M 258.813396 224.64 
L 261.392748 224.64 
L 261.392748 224.64 
L 258.813396 224.64 
z
" style="fill:#1f77b4;fill-opacity:0.75;stroke:#000000;stroke-linejoin:miter;stroke-width:0.257935;"/>
   </g>
   <g id="patch_79">
    <path clip-path="url(#p9c95a379d8)" d="M 261.392748 224.64 
L 263.972101 224.64 
L 263.972101 224.64 
L 261.392748 224.64 
z
" style="fill:#1f77b4;fill-opacity:0.75;stroke:#000000;stroke-linejoin:miter;stroke-width:0.257935;"/>
   </g>
   <g id="patch_80">
    <path clip-path="url(#p9c95a379d8)" d="M 263.972101 224.64 
L 266.551454 224.64 
L 266.551454 224.64 
L 263.972101 224.64 
z
" style="fill:#1f77b4;fill-opacity:0.75;stroke:#000000;stroke-linejoin:miter;stroke-width:0.257935;"/>
   </g>
   <g id="patch_81">
    <path clip-path="url(#p9c95a379d8)" d="M 266.551454 224.64 
L 269.130807 224.64 
L 269.130807 224.64 
L 266.551454 224.64 
z
" style="fill:#1f77b4;fill-opacity:0.75;stroke:#000000;stroke-linejoin:miter;stroke-width:0.257935;"/>
   </g>
   <g id="patch_82">
    <path clip-path="url(#p9c95a379d8)" d="M 269.130807 224.64 
L 271.71016 224.64 
L 271.71016 224.64 
L 269.130807 224.64 
z
" style="fill:#1f77b4;fill-opacity:0.75;stroke:#000000;stroke-linejoin:miter;stroke-width:0.257935;"/>
   </g>
   <g id="patch_83">
    <path clip-path="url(#p9c95a379d8)" d="M 271.71016 224.64 
L 274.289513 224.64 
L 274.289513 224.64 
L 271.71016 224.64 
z
" style="fill:#1f77b4;fill-opacity:0.75;stroke:#000000;stroke-linejoin:miter;stroke-width:0.257935;"/>
   </g>
   <g id="patch_84">
    <path clip-path="url(#p9c95a379d8)" d="M 274.289513 224.64 
L 276.868866 224.64 
L 276.868866 224.64 
L 274.289513 224.64 
z
" style="fill:#1f77b4;fill-opacity:0.75;stroke:#000000;stroke-linejoin:miter;stroke-width:0.257935;"/>
   </g>
   <g id="patch_85">
    <path clip-path="url(#p9c95a379d8)" d="M 276.868866 224.64 
L 279.448218 224.64 
L 279.448218 224.428472 
L 276.868866 224.428472 
z
" style="fill:#1f77b4;fill-opacity:0.75;stroke:#000000;stroke-linejoin:miter;stroke-width:0.257935;"/>
   </g>
   <g id="patch_86">
    <path clip-path="url(#p9c95a379d8)" d="M 279.448218 224.64 
L 282.027571 224.64 
L 282.027571 224.64 
L 279.448218 224.64 
z
" style="fill:#1f77b4;fill-opacity:0.75;stroke:#000000;stroke-linejoin:miter;stroke-width:0.257935;"/>
   </g>
   <g id="patch_87">
    <path clip-path="url(#p9c95a379d8)" d="M 282.027571 224.64 
L 284.606924 224.64 
L 284.606924 224.64 
L 282.027571 224.64 
z
" style="fill:#1f77b4;fill-opacity:0.75;stroke:#000000;stroke-linejoin:miter;stroke-width:0.257935;"/>
   </g>
   <g id="patch_88">
    <path clip-path="url(#p9c95a379d8)" d="M 284.606924 224.64 
L 287.186277 224.64 
L 287.186277 224.428472 
L 284.606924 224.428472 
z
" style="fill:#1f77b4;fill-opacity:0.75;stroke:#000000;stroke-linejoin:miter;stroke-width:0.257935;"/>
   </g>
   <g id="patch_89">
    <path clip-path="url(#p9c95a379d8)" d="M 287.186277 224.64 
L 289.76563 224.64 
L 289.76563 224.64 
L 287.186277 224.64 
z
" style="fill:#1f77b4;fill-opacity:0.75;stroke:#000000;stroke-linejoin:miter;stroke-width:0.257935;"/>
   </g>
   <g id="patch_90">
    <path clip-path="url(#p9c95a379d8)" d="M 289.76563 224.64 
L 292.344983 224.64 
L 292.344983 224.64 
L 289.76563 224.64 
z
" style="fill:#1f77b4;fill-opacity:0.75;stroke:#000000;stroke-linejoin:miter;stroke-width:0.257935;"/>
   </g>
   <g id="patch_91">
    <path clip-path="url(#p9c95a379d8)" d="M 292.344983 224.64 
L 294.924336 224.64 
L 294.924336 224.64 
L 292.344983 224.64 
z
" style="fill:#1f77b4;fill-opacity:0.75;stroke:#000000;stroke-linejoin:miter;stroke-width:0.257935;"/>
   </g>
   <g id="patch_92">
    <path clip-path="url(#p9c95a379d8)" d="M 294.924336 224.64 
L 297.503688 224.64 
L 297.503688 224.64 
L 294.924336 224.64 
z
" style="fill:#1f77b4;fill-opacity:0.75;stroke:#000000;stroke-linejoin:miter;stroke-width:0.257935;"/>
   </g>
   <g id="patch_93">
    <path clip-path="url(#p9c95a379d8)" d="M 297.503688 224.64 
L 300.083041 224.64 
L 300.083041 224.64 
L 297.503688 224.64 
z
" style="fill:#1f77b4;fill-opacity:0.75;stroke:#000000;stroke-linejoin:miter;stroke-width:0.257935;"/>
   </g>
   <g id="patch_94">
    <path clip-path="url(#p9c95a379d8)" d="M 300.083041 224.64 
L 302.662394 224.64 
L 302.662394 224.64 
L 300.083041 224.64 
z
" style="fill:#1f77b4;fill-opacity:0.75;stroke:#000000;stroke-linejoin:miter;stroke-width:0.257935;"/>
   </g>
   <g id="patch_95">
    <path clip-path="url(#p9c95a379d8)" d="M 302.662394 224.64 
L 305.241747 224.64 
L 305.241747 224.64 
L 302.662394 224.64 
z
" style="fill:#1f77b4;fill-opacity:0.75;stroke:#000000;stroke-linejoin:miter;stroke-width:0.257935;"/>
   </g>
   <g id="patch_96">
    <path clip-path="url(#p9c95a379d8)" d="M 305.241747 224.64 
L 307.8211 224.64 
L 307.8211 224.64 
L 305.241747 224.64 
z
" style="fill:#1f77b4;fill-opacity:0.75;stroke:#000000;stroke-linejoin:miter;stroke-width:0.257935;"/>
   </g>
   <g id="patch_97">
    <path clip-path="url(#p9c95a379d8)" d="M 307.8211 224.64 
L 310.400453 224.64 
L 310.400453 224.428472 
L 307.8211 224.428472 
z
" style="fill:#1f77b4;fill-opacity:0.75;stroke:#000000;stroke-linejoin:miter;stroke-width:0.257935;"/>
   </g>
   <g id="patch_98">
    <path clip-path="url(#p9c95a379d8)" d="M 310.400453 224.64 
L 312.979805 224.64 
L 312.979805 224.64 
L 310.400453 224.64 
z
" style="fill:#1f77b4;fill-opacity:0.75;stroke:#000000;stroke-linejoin:miter;stroke-width:0.257935;"/>
   </g>
   <g id="patch_99">
    <path clip-path="url(#p9c95a379d8)" d="M 312.979805 224.64 
L 315.559158 224.64 
L 315.559158 224.64 
L 312.979805 224.64 
z
" style="fill:#1f77b4;fill-opacity:0.75;stroke:#000000;stroke-linejoin:miter;stroke-width:0.257935;"/>
   </g>
   <g id="patch_100">
    <path clip-path="url(#p9c95a379d8)" d="M 315.559158 224.64 
L 318.138511 224.64 
L 318.138511 224.64 
L 315.559158 224.64 
z
" style="fill:#1f77b4;fill-opacity:0.75;stroke:#000000;stroke-linejoin:miter;stroke-width:0.257935;"/>
   </g>
   <g id="patch_101">
    <path clip-path="url(#p9c95a379d8)" d="M 318.138511 224.64 
L 320.717864 224.64 
L 320.717864 224.64 
L 318.138511 224.64 
z
" style="fill:#1f77b4;fill-opacity:0.75;stroke:#000000;stroke-linejoin:miter;stroke-width:0.257935;"/>
   </g>
   <g id="patch_102">
    <path clip-path="url(#p9c95a379d8)" d="M 320.717864 224.64 
L 323.297217 224.64 
L 323.297217 224.64 
L 320.717864 224.64 
z
" style="fill:#1f77b4;fill-opacity:0.75;stroke:#000000;stroke-linejoin:miter;stroke-width:0.257935;"/>
   </g>
   <g id="patch_103">
    <path clip-path="url(#p9c95a379d8)" d="M 323.297217 224.64 
L 325.87657 224.64 
L 325.87657 224.64 
L 323.297217 224.64 
z
" style="fill:#1f77b4;fill-opacity:0.75;stroke:#000000;stroke-linejoin:miter;stroke-width:0.257935;"/>
   </g>
   <g id="patch_104">
    <path clip-path="url(#p9c95a379d8)" d="M 325.87657 224.64 
L 328.455923 224.64 
L 328.455923 224.64 
L 325.87657 224.64 
z
" style="fill:#1f77b4;fill-opacity:0.75;stroke:#000000;stroke-linejoin:miter;stroke-width:0.257935;"/>
   </g>
   <g id="patch_105">
    <path clip-path="url(#p9c95a379d8)" d="M 328.455923 224.64 
L 331.035275 224.64 
L 331.035275 224.64 
L 328.455923 224.64 
z
" style="fill:#1f77b4;fill-opacity:0.75;stroke:#000000;stroke-linejoin:miter;stroke-width:0.257935;"/>
   </g>
   <g id="patch_106">
    <path clip-path="url(#p9c95a379d8)" d="M 331.035275 224.64 
L 333.614628 224.64 
L 333.614628 224.64 
L 331.035275 224.64 
z
" style="fill:#1f77b4;fill-opacity:0.75;stroke:#000000;stroke-linejoin:miter;stroke-width:0.257935;"/>
   </g>
   <g id="patch_107">
    <path clip-path="url(#p9c95a379d8)" d="M 333.614628 224.64 
L 336.193981 224.64 
L 336.193981 224.64 
L 333.614628 224.64 
z
" style="fill:#1f77b4;fill-opacity:0.75;stroke:#000000;stroke-linejoin:miter;stroke-width:0.257935;"/>
   </g>
   <g id="patch_108">
    <path clip-path="url(#p9c95a379d8)" d="M 336.193981 224.64 
L 338.773334 224.64 
L 338.773334 224.64 
L 336.193981 224.64 
z
" style="fill:#1f77b4;fill-opacity:0.75;stroke:#000000;stroke-linejoin:miter;stroke-width:0.257935;"/>
   </g>
   <g id="patch_109">
    <path clip-path="url(#p9c95a379d8)" d="M 338.773334 224.64 
L 341.352687 224.64 
L 341.352687 224.64 
L 338.773334 224.64 
z
" style="fill:#1f77b4;fill-opacity:0.75;stroke:#000000;stroke-linejoin:miter;stroke-width:0.257935;"/>
   </g>
   <g id="patch_110">
    <path clip-path="url(#p9c95a379d8)" d="M 341.352687 224.64 
L 343.93204 224.64 
L 343.93204 224.64 
L 341.352687 224.64 
z
" style="fill:#1f77b4;fill-opacity:0.75;stroke:#000000;stroke-linejoin:miter;stroke-width:0.257935;"/>
   </g>
   <g id="patch_111">
    <path clip-path="url(#p9c95a379d8)" d="M 343.93204 224.64 
L 346.511393 224.64 
L 346.511393 224.64 
L 343.93204 224.64 
z
" style="fill:#1f77b4;fill-opacity:0.75;stroke:#000000;stroke-linejoin:miter;stroke-width:0.257935;"/>
   </g>
   <g id="patch_112">
    <path clip-path="url(#p9c95a379d8)" d="M 346.511393 224.64 
L 349.090745 224.64 
L 349.090745 224.64 
L 346.511393 224.64 
z
" style="fill:#1f77b4;fill-opacity:0.75;stroke:#000000;stroke-linejoin:miter;stroke-width:0.257935;"/>
   </g>
   <g id="patch_113">
    <path clip-path="url(#p9c95a379d8)" d="M 349.090745 224.64 
L 351.670098 224.64 
L 351.670098 224.64 
L 349.090745 224.64 
z
" style="fill:#1f77b4;fill-opacity:0.75;stroke:#000000;stroke-linejoin:miter;stroke-width:0.257935;"/>
   </g>
   <g id="patch_114">
    <path clip-path="url(#p9c95a379d8)" d="M 351.670098 224.64 
L 354.249451 224.64 
L 354.249451 224.64 
L 351.670098 224.64 
z
" style="fill:#1f77b4;fill-opacity:0.75;stroke:#000000;stroke-linejoin:miter;stroke-width:0.257935;"/>
   </g>
   <g id="patch_115">
    <path clip-path="url(#p9c95a379d8)" d="M 354.249451 224.64 
L 356.828804 224.64 
L 356.828804 224.64 
L 354.249451 224.64 
z
" style="fill:#1f77b4;fill-opacity:0.75;stroke:#000000;stroke-linejoin:miter;stroke-width:0.257935;"/>
   </g>
   <g id="patch_116">
    <path clip-path="url(#p9c95a379d8)" d="M 356.828804 224.64 
L 359.408157 224.64 
L 359.408157 224.64 
L 356.828804 224.64 
z
" style="fill:#1f77b4;fill-opacity:0.75;stroke:#000000;stroke-linejoin:miter;stroke-width:0.257935;"/>
   </g>
   <g id="patch_117">
    <path clip-path="url(#p9c95a379d8)" d="M 359.408157 224.64 
L 361.98751 224.64 
L 361.98751 224.64 
L 359.408157 224.64 
z
" style="fill:#1f77b4;fill-opacity:0.75;stroke:#000000;stroke-linejoin:miter;stroke-width:0.257935;"/>
   </g>
   <g id="patch_118">
    <path clip-path="url(#p9c95a379d8)" d="M 361.98751 224.64 
L 364.566862 224.64 
L 364.566862 224.64 
L 361.98751 224.64 
z
" style="fill:#1f77b4;fill-opacity:0.75;stroke:#000000;stroke-linejoin:miter;stroke-width:0.257935;"/>
   </g>
   <g id="patch_119">
    <path clip-path="url(#p9c95a379d8)" d="M 364.566862 224.64 
L 367.146215 224.64 
L 367.146215 224.64 
L 364.566862 224.64 
z
" style="fill:#1f77b4;fill-opacity:0.75;stroke:#000000;stroke-linejoin:miter;stroke-width:0.257935;"/>
   </g>
   <g id="patch_120">
    <path clip-path="url(#p9c95a379d8)" d="M 367.146215 224.64 
L 369.725568 224.64 
L 369.725568 224.428472 
L 367.146215 224.428472 
z
" style="fill:#1f77b4;fill-opacity:0.75;stroke:#000000;stroke-linejoin:miter;stroke-width:0.257935;"/>
   </g>
   <g id="matplotlib.axis_1">
    <g id="xtick_1">
     <g id="line2d_1">
      <defs>
       <path d="M 0 0 
L 0 3.5 
" id="m06d65d9e99" style="stroke:#000000;stroke-width:0.8;"/>
      </defs>
      <g>
       <use style="stroke:#000000;stroke-width:0.8;" x="65.266729" xlink:href="#m06d65d9e99" y="224.64"/>
      </g>
     </g>
     <g id="text_1">
      <!-- 0.0 -->
      <g transform="translate(57.315166 239.238438)scale(0.1 -0.1)">
       <defs>
        <path d="M 31.78125 66.40625 
Q 24.171875 66.40625 20.328125 58.90625 
Q 16.5 51.421875 16.5 36.375 
Q 16.5 21.390625 20.328125 13.890625 
Q 24.171875 6.390625 31.78125 6.390625 
Q 39.453125 6.390625 43.28125 13.890625 
Q 47.125 21.390625 47.125 36.375 
Q 47.125 51.421875 43.28125 58.90625 
Q 39.453125 66.40625 31.78125 66.40625 
z
M 31.78125 74.21875 
Q 44.046875 74.21875 50.515625 64.515625 
Q 56.984375 54.828125 56.984375 36.375 
Q 56.984375 17.96875 50.515625 8.265625 
Q 44.046875 -1.421875 31.78125 -1.421875 
Q 19.53125 -1.421875 13.0625 8.265625 
Q 6.59375 17.96875 6.59375 36.375 
Q 6.59375 54.828125 13.0625 64.515625 
Q 19.53125 74.21875 31.78125 74.21875 
z
" id="DejaVuSans-48"/>
        <path d="M 10.6875 12.40625 
L 21 12.40625 
L 21 0 
L 10.6875 0 
z
" id="DejaVuSans-46"/>
       </defs>
       <use xlink:href="#DejaVuSans-48"/>
       <use x="63.623047" xlink:href="#DejaVuSans-46"/>
       <use x="95.410156" xlink:href="#DejaVuSans-48"/>
      </g>
     </g>
    </g>
    <g id="xtick_2">
     <g id="line2d_2">
      <g>
       <use style="stroke:#000000;stroke-width:0.8;" x="133.812809" xlink:href="#m06d65d9e99" y="224.64"/>
      </g>
     </g>
     <g id="text_2">
      <!-- 0.2 -->
      <g transform="translate(125.861247 239.238438)scale(0.1 -0.1)">
       <defs>
        <path d="M 19.1875 8.296875 
L 53.609375 8.296875 
L 53.609375 0 
L 7.328125 0 
L 7.328125 8.296875 
Q 12.9375 14.109375 22.625 23.890625 
Q 32.328125 33.6875 34.8125 36.53125 
Q 39.546875 41.84375 41.421875 45.53125 
Q 43.3125 49.21875 43.3125 52.78125 
Q 43.3125 58.59375 39.234375 62.25 
Q 35.15625 65.921875 28.609375 65.921875 
Q 23.96875 65.921875 18.8125 64.3125 
Q 13.671875 62.703125 7.8125 59.421875 
L 7.8125 69.390625 
Q 13.765625 71.78125 18.9375 73 
Q 24.125 74.21875 28.421875 74.21875 
Q 39.75 74.21875 46.484375 68.546875 
Q 53.21875 62.890625 53.21875 53.421875 
Q 53.21875 48.921875 51.53125 44.890625 
Q 49.859375 40.875 45.40625 35.40625 
Q 44.1875 33.984375 37.640625 27.21875 
Q 31.109375 20.453125 19.1875 8.296875 
z
" id="DejaVuSans-50"/>
       </defs>
       <use xlink:href="#DejaVuSans-48"/>
       <use x="63.623047" xlink:href="#DejaVuSans-46"/>
       <use x="95.410156" xlink:href="#DejaVuSans-50"/>
      </g>
     </g>
    </g>
    <g id="xtick_3">
     <g id="line2d_3">
      <g>
       <use style="stroke:#000000;stroke-width:0.8;" x="202.358889" xlink:href="#m06d65d9e99" y="224.64"/>
      </g>
     </g>
     <g id="text_3">
      <!-- 0.4 -->
      <g transform="translate(194.407327 239.238438)scale(0.1 -0.1)">
       <defs>
        <path d="M 37.796875 64.3125 
L 12.890625 25.390625 
L 37.796875 25.390625 
z
M 35.203125 72.90625 
L 47.609375 72.90625 
L 47.609375 25.390625 
L 58.015625 25.390625 
L 58.015625 17.1875 
L 47.609375 17.1875 
L 47.609375 0 
L 37.796875 0 
L 37.796875 17.1875 
L 4.890625 17.1875 
L 4.890625 26.703125 
z
" id="DejaVuSans-52"/>
       </defs>
       <use xlink:href="#DejaVuSans-48"/>
       <use x="63.623047" xlink:href="#DejaVuSans-46"/>
       <use x="95.410156" xlink:href="#DejaVuSans-52"/>
      </g>
     </g>
    </g>
    <g id="xtick_4">
     <g id="line2d_4">
      <g>
       <use style="stroke:#000000;stroke-width:0.8;" x="270.904969" xlink:href="#m06d65d9e99" y="224.64"/>
      </g>
     </g>
     <g id="text_4">
      <!-- 0.6 -->
      <g transform="translate(262.953407 239.238438)scale(0.1 -0.1)">
       <defs>
        <path d="M 33.015625 40.375 
Q 26.375 40.375 22.484375 35.828125 
Q 18.609375 31.296875 18.609375 23.390625 
Q 18.609375 15.53125 22.484375 10.953125 
Q 26.375 6.390625 33.015625 6.390625 
Q 39.65625 6.390625 43.53125 10.953125 
Q 47.40625 15.53125 47.40625 23.390625 
Q 47.40625 31.296875 43.53125 35.828125 
Q 39.65625 40.375 33.015625 40.375 
z
M 52.59375 71.296875 
L 52.59375 62.3125 
Q 48.875 64.0625 45.09375 64.984375 
Q 41.3125 65.921875 37.59375 65.921875 
Q 27.828125 65.921875 22.671875 59.328125 
Q 17.53125 52.734375 16.796875 39.40625 
Q 19.671875 43.65625 24.015625 45.921875 
Q 28.375 48.1875 33.59375 48.1875 
Q 44.578125 48.1875 50.953125 41.515625 
Q 57.328125 34.859375 57.328125 23.390625 
Q 57.328125 12.15625 50.6875 5.359375 
Q 44.046875 -1.421875 33.015625 -1.421875 
Q 20.359375 -1.421875 13.671875 8.265625 
Q 6.984375 17.96875 6.984375 36.375 
Q 6.984375 53.65625 15.1875 63.9375 
Q 23.390625 74.21875 37.203125 74.21875 
Q 40.921875 74.21875 44.703125 73.484375 
Q 48.484375 72.75 52.59375 71.296875 
z
" id="DejaVuSans-54"/>
       </defs>
       <use xlink:href="#DejaVuSans-48"/>
       <use x="63.623047" xlink:href="#DejaVuSans-46"/>
       <use x="95.410156" xlink:href="#DejaVuSans-54"/>
      </g>
     </g>
    </g>
    <g id="xtick_5">
     <g id="line2d_5">
      <g>
       <use style="stroke:#000000;stroke-width:0.8;" x="339.451049" xlink:href="#m06d65d9e99" y="224.64"/>
      </g>
     </g>
     <g id="text_5">
      <!-- 0.8 -->
      <g transform="translate(331.499487 239.238438)scale(0.1 -0.1)">
       <defs>
        <path d="M 31.78125 34.625 
Q 24.75 34.625 20.71875 30.859375 
Q 16.703125 27.09375 16.703125 20.515625 
Q 16.703125 13.921875 20.71875 10.15625 
Q 24.75 6.390625 31.78125 6.390625 
Q 38.8125 6.390625 42.859375 10.171875 
Q 46.921875 13.96875 46.921875 20.515625 
Q 46.921875 27.09375 42.890625 30.859375 
Q 38.875 34.625 31.78125 34.625 
z
M 21.921875 38.8125 
Q 15.578125 40.375 12.03125 44.71875 
Q 8.5 49.078125 8.5 55.328125 
Q 8.5 64.0625 14.71875 69.140625 
Q 20.953125 74.21875 31.78125 74.21875 
Q 42.671875 74.21875 48.875 69.140625 
Q 55.078125 64.0625 55.078125 55.328125 
Q 55.078125 49.078125 51.53125 44.71875 
Q 48 40.375 41.703125 38.8125 
Q 48.828125 37.15625 52.796875 32.3125 
Q 56.78125 27.484375 56.78125 20.515625 
Q 56.78125 9.90625 50.3125 4.234375 
Q 43.84375 -1.421875 31.78125 -1.421875 
Q 19.734375 -1.421875 13.25 4.234375 
Q 6.78125 9.90625 6.78125 20.515625 
Q 6.78125 27.484375 10.78125 32.3125 
Q 14.796875 37.15625 21.921875 38.8125 
z
M 18.3125 54.390625 
Q 18.3125 48.734375 21.84375 45.5625 
Q 25.390625 42.390625 31.78125 42.390625 
Q 38.140625 42.390625 41.71875 45.5625 
Q 45.3125 48.734375 45.3125 54.390625 
Q 45.3125 60.0625 41.71875 63.234375 
Q 38.140625 66.40625 31.78125 66.40625 
Q 25.390625 66.40625 21.84375 63.234375 
Q 18.3125 60.0625 18.3125 54.390625 
z
" id="DejaVuSans-56"/>
       </defs>
       <use xlink:href="#DejaVuSans-48"/>
       <use x="63.623047" xlink:href="#DejaVuSans-46"/>
       <use x="95.410156" xlink:href="#DejaVuSans-56"/>
      </g>
     </g>
    </g>
    <g id="text_6">
     <!-- TIME (HH) -->
     <g transform="translate(192.530469 252.916563)scale(0.1 -0.1)">
      <defs>
       <path d="M -0.296875 72.90625 
L 61.375 72.90625 
L 61.375 64.59375 
L 35.5 64.59375 
L 35.5 0 
L 25.59375 0 
L 25.59375 64.59375 
L -0.296875 64.59375 
z
" id="DejaVuSans-84"/>
       <path d="M 9.8125 72.90625 
L 19.671875 72.90625 
L 19.671875 0 
L 9.8125 0 
z
" id="DejaVuSans-73"/>
       <path d="M 9.8125 72.90625 
L 24.515625 72.90625 
L 43.109375 23.296875 
L 61.8125 72.90625 
L 76.515625 72.90625 
L 76.515625 0 
L 66.890625 0 
L 66.890625 64.015625 
L 48.09375 14.015625 
L 38.1875 14.015625 
L 19.390625 64.015625 
L 19.390625 0 
L 9.8125 0 
z
" id="DejaVuSans-77"/>
       <path d="M 9.8125 72.90625 
L 55.90625 72.90625 
L 55.90625 64.59375 
L 19.671875 64.59375 
L 19.671875 43.015625 
L 54.390625 43.015625 
L 54.390625 34.71875 
L 19.671875 34.71875 
L 19.671875 8.296875 
L 56.78125 8.296875 
L 56.78125 0 
L 9.8125 0 
z
" id="DejaVuSans-69"/>
       <path id="DejaVuSans-32"/>
       <path d="M 31 75.875 
Q 24.46875 64.65625 21.28125 53.65625 
Q 18.109375 42.671875 18.109375 31.390625 
Q 18.109375 20.125 21.3125 9.0625 
Q 24.515625 -2 31 -13.1875 
L 23.1875 -13.1875 
Q 15.875 -1.703125 12.234375 9.375 
Q 8.59375 20.453125 8.59375 31.390625 
Q 8.59375 42.28125 12.203125 53.3125 
Q 15.828125 64.359375 23.1875 75.875 
z
" id="DejaVuSans-40"/>
       <path d="M 9.8125 72.90625 
L 19.671875 72.90625 
L 19.671875 43.015625 
L 55.515625 43.015625 
L 55.515625 72.90625 
L 65.375 72.90625 
L 65.375 0 
L 55.515625 0 
L 55.515625 34.71875 
L 19.671875 34.71875 
L 19.671875 0 
L 9.8125 0 
z
" id="DejaVuSans-72"/>
       <path d="M 8.015625 75.875 
L 15.828125 75.875 
Q 23.140625 64.359375 26.78125 53.3125 
Q 30.421875 42.28125 30.421875 31.390625 
Q 30.421875 20.453125 26.78125 9.375 
Q 23.140625 -1.703125 15.828125 -13.1875 
L 8.015625 -13.1875 
Q 14.5 -2 17.703125 9.0625 
Q 20.90625 20.125 20.90625 31.390625 
Q 20.90625 42.671875 17.703125 53.65625 
Q 14.5 64.65625 8.015625 75.875 
z
" id="DejaVuSans-41"/>
      </defs>
      <use xlink:href="#DejaVuSans-84"/>
      <use x="61.083984" xlink:href="#DejaVuSans-73"/>
      <use x="90.576172" xlink:href="#DejaVuSans-77"/>
      <use x="176.855469" xlink:href="#DejaVuSans-69"/>
      <use x="240.039062" xlink:href="#DejaVuSans-32"/>
      <use x="271.826172" xlink:href="#DejaVuSans-40"/>
      <use x="310.839844" xlink:href="#DejaVuSans-72"/>
      <use x="386.035156" xlink:href="#DejaVuSans-72"/>
      <use x="461.230469" xlink:href="#DejaVuSans-41"/>
     </g>
    </g>
   </g>
   <g id="matplotlib.axis_2">
    <g id="ytick_1">
     <g id="line2d_6">
      <defs>
       <path d="M 0 0 
L -3.5 0 
" id="m03867871c2" style="stroke:#000000;stroke-width:0.8;"/>
      </defs>
      <g>
       <use style="stroke:#000000;stroke-width:0.8;" x="50.14375" xlink:href="#m03867871c2" y="224.64"/>
      </g>
     </g>
     <g id="text_7">
      <!-- 0.00 -->
      <g transform="translate(20.878125 228.439219)scale(0.1 -0.1)">
       <use xlink:href="#DejaVuSans-48"/>
       <use x="63.623047" xlink:href="#DejaVuSans-46"/>
       <use x="95.410156" xlink:href="#DejaVuSans-48"/>
       <use x="159.033203" xlink:href="#DejaVuSans-48"/>
      </g>
     </g>
    </g>
    <g id="ytick_2">
     <g id="line2d_7">
      <g>
       <use style="stroke:#000000;stroke-width:0.8;" x="50.14375" xlink:href="#m03867871c2" y="182.48251"/>
      </g>
     </g>
     <g id="text_8">
      <!-- 0.02 -->
      <g transform="translate(20.878125 186.281729)scale(0.1 -0.1)">
       <use xlink:href="#DejaVuSans-48"/>
       <use x="63.623047" xlink:href="#DejaVuSans-46"/>
       <use x="95.410156" xlink:href="#DejaVuSans-48"/>
       <use x="159.033203" xlink:href="#DejaVuSans-50"/>
      </g>
     </g>
    </g>
    <g id="ytick_3">
     <g id="line2d_8">
      <g>
       <use style="stroke:#000000;stroke-width:0.8;" x="50.14375" xlink:href="#m03867871c2" y="140.32502"/>
      </g>
     </g>
     <g id="text_9">
      <!-- 0.04 -->
      <g transform="translate(20.878125 144.124238)scale(0.1 -0.1)">
       <use xlink:href="#DejaVuSans-48"/>
       <use x="63.623047" xlink:href="#DejaVuSans-46"/>
       <use x="95.410156" xlink:href="#DejaVuSans-48"/>
       <use x="159.033203" xlink:href="#DejaVuSans-52"/>
      </g>
     </g>
    </g>
    <g id="ytick_4">
     <g id="line2d_9">
      <g>
       <use style="stroke:#000000;stroke-width:0.8;" x="50.14375" xlink:href="#m03867871c2" y="98.16753"/>
      </g>
     </g>
     <g id="text_10">
      <!-- 0.06 -->
      <g transform="translate(20.878125 101.966748)scale(0.1 -0.1)">
       <use xlink:href="#DejaVuSans-48"/>
       <use x="63.623047" xlink:href="#DejaVuSans-46"/>
       <use x="95.410156" xlink:href="#DejaVuSans-48"/>
       <use x="159.033203" xlink:href="#DejaVuSans-54"/>
      </g>
     </g>
    </g>
    <g id="ytick_5">
     <g id="line2d_10">
      <g>
       <use style="stroke:#000000;stroke-width:0.8;" x="50.14375" xlink:href="#m03867871c2" y="56.010039"/>
      </g>
     </g>
     <g id="text_11">
      <!-- 0.08 -->
      <g transform="translate(20.878125 59.809258)scale(0.1 -0.1)">
       <use xlink:href="#DejaVuSans-48"/>
       <use x="63.623047" xlink:href="#DejaVuSans-46"/>
       <use x="95.410156" xlink:href="#DejaVuSans-48"/>
       <use x="159.033203" xlink:href="#DejaVuSans-56"/>
      </g>
     </g>
    </g>
    <g id="ytick_6">
     <g id="line2d_11">
      <g>
       <use style="stroke:#000000;stroke-width:0.8;" x="50.14375" xlink:href="#m03867871c2" y="13.852549"/>
      </g>
     </g>
     <g id="text_12">
      <!-- 0.10 -->
      <g transform="translate(20.878125 17.651768)scale(0.1 -0.1)">
       <defs>
        <path d="M 12.40625 8.296875 
L 28.515625 8.296875 
L 28.515625 63.921875 
L 10.984375 60.40625 
L 10.984375 69.390625 
L 28.421875 72.90625 
L 38.28125 72.90625 
L 38.28125 8.296875 
L 54.390625 8.296875 
L 54.390625 0 
L 12.40625 0 
z
" id="DejaVuSans-49"/>
       </defs>
       <use xlink:href="#DejaVuSans-48"/>
       <use x="63.623047" xlink:href="#DejaVuSans-46"/>
       <use x="95.410156" xlink:href="#DejaVuSans-49"/>
       <use x="159.033203" xlink:href="#DejaVuSans-48"/>
      </g>
     </g>
    </g>
    <g id="text_13">
     <!-- Probability -->
     <g transform="translate(14.798438 142.348906)rotate(-90)scale(0.1 -0.1)">
      <defs>
       <path d="M 19.671875 64.796875 
L 19.671875 37.40625 
L 32.078125 37.40625 
Q 38.96875 37.40625 42.71875 40.96875 
Q 46.484375 44.53125 46.484375 51.125 
Q 46.484375 57.671875 42.71875 61.234375 
Q 38.96875 64.796875 32.078125 64.796875 
z
M 9.8125 72.90625 
L 32.078125 72.90625 
Q 44.34375 72.90625 50.609375 67.359375 
Q 56.890625 61.8125 56.890625 51.125 
Q 56.890625 40.328125 50.609375 34.8125 
Q 44.34375 29.296875 32.078125 29.296875 
L 19.671875 29.296875 
L 19.671875 0 
L 9.8125 0 
z
" id="DejaVuSans-80"/>
       <path d="M 41.109375 46.296875 
Q 39.59375 47.171875 37.8125 47.578125 
Q 36.03125 48 33.890625 48 
Q 26.265625 48 22.1875 43.046875 
Q 18.109375 38.09375 18.109375 28.8125 
L 18.109375 0 
L 9.078125 0 
L 9.078125 54.6875 
L 18.109375 54.6875 
L 18.109375 46.1875 
Q 20.953125 51.171875 25.484375 53.578125 
Q 30.03125 56 36.53125 56 
Q 37.453125 56 38.578125 55.875 
Q 39.703125 55.765625 41.0625 55.515625 
z
" id="DejaVuSans-114"/>
       <path d="M 30.609375 48.390625 
Q 23.390625 48.390625 19.1875 42.75 
Q 14.984375 37.109375 14.984375 27.296875 
Q 14.984375 17.484375 19.15625 11.84375 
Q 23.34375 6.203125 30.609375 6.203125 
Q 37.796875 6.203125 41.984375 11.859375 
Q 46.1875 17.53125 46.1875 27.296875 
Q 46.1875 37.015625 41.984375 42.703125 
Q 37.796875 48.390625 30.609375 48.390625 
z
M 30.609375 56 
Q 42.328125 56 49.015625 48.375 
Q 55.71875 40.765625 55.71875 27.296875 
Q 55.71875 13.875 49.015625 6.21875 
Q 42.328125 -1.421875 30.609375 -1.421875 
Q 18.84375 -1.421875 12.171875 6.21875 
Q 5.515625 13.875 5.515625 27.296875 
Q 5.515625 40.765625 12.171875 48.375 
Q 18.84375 56 30.609375 56 
z
" id="DejaVuSans-111"/>
       <path d="M 48.6875 27.296875 
Q 48.6875 37.203125 44.609375 42.84375 
Q 40.53125 48.484375 33.40625 48.484375 
Q 26.265625 48.484375 22.1875 42.84375 
Q 18.109375 37.203125 18.109375 27.296875 
Q 18.109375 17.390625 22.1875 11.75 
Q 26.265625 6.109375 33.40625 6.109375 
Q 40.53125 6.109375 44.609375 11.75 
Q 48.6875 17.390625 48.6875 27.296875 
z
M 18.109375 46.390625 
Q 20.953125 51.265625 25.265625 53.625 
Q 29.59375 56 35.59375 56 
Q 45.5625 56 51.78125 48.09375 
Q 58.015625 40.1875 58.015625 27.296875 
Q 58.015625 14.40625 51.78125 6.484375 
Q 45.5625 -1.421875 35.59375 -1.421875 
Q 29.59375 -1.421875 25.265625 0.953125 
Q 20.953125 3.328125 18.109375 8.203125 
L 18.109375 0 
L 9.078125 0 
L 9.078125 75.984375 
L 18.109375 75.984375 
z
" id="DejaVuSans-98"/>
       <path d="M 34.28125 27.484375 
Q 23.390625 27.484375 19.1875 25 
Q 14.984375 22.515625 14.984375 16.5 
Q 14.984375 11.71875 18.140625 8.90625 
Q 21.296875 6.109375 26.703125 6.109375 
Q 34.1875 6.109375 38.703125 11.40625 
Q 43.21875 16.703125 43.21875 25.484375 
L 43.21875 27.484375 
z
M 52.203125 31.203125 
L 52.203125 0 
L 43.21875 0 
L 43.21875 8.296875 
Q 40.140625 3.328125 35.546875 0.953125 
Q 30.953125 -1.421875 24.3125 -1.421875 
Q 15.921875 -1.421875 10.953125 3.296875 
Q 6 8.015625 6 15.921875 
Q 6 25.140625 12.171875 29.828125 
Q 18.359375 34.515625 30.609375 34.515625 
L 43.21875 34.515625 
L 43.21875 35.40625 
Q 43.21875 41.609375 39.140625 45 
Q 35.0625 48.390625 27.6875 48.390625 
Q 23 48.390625 18.546875 47.265625 
Q 14.109375 46.140625 10.015625 43.890625 
L 10.015625 52.203125 
Q 14.9375 54.109375 19.578125 55.046875 
Q 24.21875 56 28.609375 56 
Q 40.484375 56 46.34375 49.84375 
Q 52.203125 43.703125 52.203125 31.203125 
z
" id="DejaVuSans-97"/>
       <path d="M 9.421875 54.6875 
L 18.40625 54.6875 
L 18.40625 0 
L 9.421875 0 
z
M 9.421875 75.984375 
L 18.40625 75.984375 
L 18.40625 64.59375 
L 9.421875 64.59375 
z
" id="DejaVuSans-105"/>
       <path d="M 9.421875 75.984375 
L 18.40625 75.984375 
L 18.40625 0 
L 9.421875 0 
z
" id="DejaVuSans-108"/>
       <path d="M 18.3125 70.21875 
L 18.3125 54.6875 
L 36.8125 54.6875 
L 36.8125 47.703125 
L 18.3125 47.703125 
L 18.3125 18.015625 
Q 18.3125 11.328125 20.140625 9.421875 
Q 21.96875 7.515625 27.59375 7.515625 
L 36.8125 7.515625 
L 36.8125 0 
L 27.59375 0 
Q 17.1875 0 13.234375 3.875 
Q 9.28125 7.765625 9.28125 18.015625 
L 9.28125 47.703125 
L 2.6875 47.703125 
L 2.6875 54.6875 
L 9.28125 54.6875 
L 9.28125 70.21875 
z
" id="DejaVuSans-116"/>
       <path d="M 32.171875 -5.078125 
Q 28.375 -14.84375 24.75 -17.8125 
Q 21.140625 -20.796875 15.09375 -20.796875 
L 7.90625 -20.796875 
L 7.90625 -13.28125 
L 13.1875 -13.28125 
Q 16.890625 -13.28125 18.9375 -11.515625 
Q 21 -9.765625 23.484375 -3.21875 
L 25.09375 0.875 
L 2.984375 54.6875 
L 12.5 54.6875 
L 29.59375 11.921875 
L 46.6875 54.6875 
L 56.203125 54.6875 
z
" id="DejaVuSans-121"/>
      </defs>
      <use xlink:href="#DejaVuSans-80"/>
      <use x="58.552734" xlink:href="#DejaVuSans-114"/>
      <use x="97.416016" xlink:href="#DejaVuSans-111"/>
      <use x="158.597656" xlink:href="#DejaVuSans-98"/>
      <use x="222.074219" xlink:href="#DejaVuSans-97"/>
      <use x="283.353516" xlink:href="#DejaVuSans-98"/>
      <use x="346.830078" xlink:href="#DejaVuSans-105"/>
      <use x="374.613281" xlink:href="#DejaVuSans-108"/>
      <use x="402.396484" xlink:href="#DejaVuSans-105"/>
      <use x="430.179688" xlink:href="#DejaVuSans-116"/>
      <use x="469.388672" xlink:href="#DejaVuSans-121"/>
     </g>
    </g>
   </g>
   <g id="patch_121">
    <path d="M 50.14375 224.64 
L 50.14375 7.2 
" style="fill:none;stroke:#000000;stroke-linecap:square;stroke-linejoin:miter;stroke-width:0.8;"/>
   </g>
   <g id="patch_122">
    <path d="M 384.94375 224.64 
L 384.94375 7.2 
" style="fill:none;stroke:#000000;stroke-linecap:square;stroke-linejoin:miter;stroke-width:0.8;"/>
   </g>
   <g id="patch_123">
    <path d="M 50.14375 224.64 
L 384.94375 224.64 
" style="fill:none;stroke:#000000;stroke-linecap:square;stroke-linejoin:miter;stroke-width:0.8;"/>
   </g>
   <g id="patch_124">
    <path d="M 50.14375 7.2 
L 384.94375 7.2 
" style="fill:none;stroke:#000000;stroke-linecap:square;stroke-linejoin:miter;stroke-width:0.8;"/>
   </g>
  </g>
 </g>
 <defs>
  <clipPath id="p9c95a379d8">
   <rect height="217.44" width="334.8" x="50.14375" y="7.2"/>
  </clipPath>
 </defs>
</svg>
