<?xml version="1.0" encoding="utf-8" standalone="no"?>
<!DOCTYPE svg PUBLIC "-//W3C//DTD SVG 1.1//EN"
  "http://www.w3.org/Graphics/SVG/1.1/DTD/svg11.dtd">
<svg height="216pt" version="1.1" viewBox="0 0 432 216" width="432pt" xmlns="http://www.w3.org/2000/svg" xmlns:xlink="http://www.w3.org/1999/xlink">
 <metadata>
  <rdf:RDF xmlns:cc="http://creativecommons.org/ns#" xmlns:dc="http://purl.org/dc/elements/1.1/" xmlns:rdf="http://www.w3.org/1999/02/22-rdf-syntax-ns#">
   <cc:Work>
    <dc:type rdf:resource="http://purl.org/dc/dcmitype/StillImage"/>
    <dc:date>2021-05-05T16:14:41.378581</dc:date>
    <dc:format>image/svg+xml</dc:format>
    <dc:creator>
     <cc:Agent>
      <dc:title>Matplotlib v3.4.1, https://matplotlib.org/</dc:title>
     </cc:Agent>
    </dc:creator>
   </cc:Work>
  </rdf:RDF>
 </metadata>
 <defs>
  <style type="text/css">*{stroke-linecap:butt;stroke-linejoin:round;}</style>
 </defs>
 <g id="figure_1">
  <g id="patch_1">
   <path d="M 0 216 
L 432 216 
L 432 0 
L 0 0 
z
" style="fill:#ffffff;"/>
  </g>
  <g id="axes_1">
   <g id="patch_2">
    <path d="M 34.71 183.54 
L 220.395 183.54 
L 220.395 26.96 
L 34.71 26.96 
z
" style="fill:#eaeaf2;"/>
   </g>
   <g id="matplotlib.axis_1">
    <g id="xtick_1">
     <g id="line2d_1">
      <path clip-path="url(#p4b8bc9faa2)" d="M 98.086346 183.54 
L 98.086346 26.96 
" style="fill:none;stroke:#ffffff;stroke-linecap:round;"/>
     </g>
     <g id="text_1">
      <!-- 20 -->
      <g style="fill:#262626;" transform="translate(91.969315 200.913594)scale(0.11 -0.11)">
       <defs>
        <path d="M 3222 541 
L 3222 0 
L 194 0 
Q 188 203 259 391 
Q 375 700 629 1000 
Q 884 1300 1366 1694 
Q 2113 2306 2375 2664 
Q 2638 3022 2638 3341 
Q 2638 3675 2398 3904 
Q 2159 4134 1775 4134 
Q 1369 4134 1125 3890 
Q 881 3647 878 3216 
L 300 3275 
Q 359 3922 746 4261 
Q 1134 4600 1788 4600 
Q 2447 4600 2831 4234 
Q 3216 3869 3216 3328 
Q 3216 3053 3103 2787 
Q 2991 2522 2730 2228 
Q 2469 1934 1863 1422 
Q 1356 997 1212 845 
Q 1069 694 975 541 
L 3222 541 
z
" id="ArialMT-32" transform="scale(0.015625)"/>
        <path d="M 266 2259 
Q 266 3072 433 3567 
Q 600 4063 929 4331 
Q 1259 4600 1759 4600 
Q 2128 4600 2406 4451 
Q 2684 4303 2865 4023 
Q 3047 3744 3150 3342 
Q 3253 2941 3253 2259 
Q 3253 1453 3087 958 
Q 2922 463 2592 192 
Q 2263 -78 1759 -78 
Q 1097 -78 719 397 
Q 266 969 266 2259 
z
M 844 2259 
Q 844 1131 1108 757 
Q 1372 384 1759 384 
Q 2147 384 2411 759 
Q 2675 1134 2675 2259 
Q 2675 3391 2411 3762 
Q 2147 4134 1753 4134 
Q 1366 4134 1134 3806 
Q 844 3388 844 2259 
z
" id="ArialMT-30" transform="scale(0.015625)"/>
       </defs>
       <use xlink:href="#ArialMT-32"/>
       <use x="55.615234" xlink:href="#ArialMT-30"/>
      </g>
     </g>
    </g>
    <g id="xtick_2">
     <g id="line2d_2">
      <path clip-path="url(#p4b8bc9faa2)" d="M 168.869422 183.54 
L 168.869422 26.96 
" style="fill:none;stroke:#ffffff;stroke-linecap:round;"/>
     </g>
     <g id="text_2">
      <!-- 40 -->
      <g style="fill:#262626;" transform="translate(162.752391 200.913594)scale(0.11 -0.11)">
       <defs>
        <path d="M 2069 0 
L 2069 1097 
L 81 1097 
L 81 1613 
L 2172 4581 
L 2631 4581 
L 2631 1613 
L 3250 1613 
L 3250 1097 
L 2631 1097 
L 2631 0 
L 2069 0 
z
M 2069 1613 
L 2069 3678 
L 634 1613 
L 2069 1613 
z
" id="ArialMT-34" transform="scale(0.015625)"/>
       </defs>
       <use xlink:href="#ArialMT-34"/>
       <use x="55.615234" xlink:href="#ArialMT-30"/>
      </g>
     </g>
    </g>
   </g>
   <g id="matplotlib.axis_2">
    <g id="ytick_1">
     <g id="line2d_3">
      <path clip-path="url(#p4b8bc9faa2)" d="M 34.71 183.54 
L 220.395 183.54 
" style="fill:none;stroke:#ffffff;stroke-linecap:round;"/>
     </g>
     <g id="text_3">
      <!-- 0 -->
      <g style="fill:#262626;" transform="translate(19.092969 187.476797)scale(0.11 -0.11)">
       <use xlink:href="#ArialMT-30"/>
      </g>
     </g>
    </g>
    <g id="ytick_2">
     <g id="line2d_4">
      <path clip-path="url(#p4b8bc9faa2)" d="M 34.71 160.945483 
L 220.395 160.945483 
" style="fill:none;stroke:#ffffff;stroke-linecap:round;"/>
     </g>
     <g id="text_4">
      <!-- 5 -->
      <g style="fill:#262626;" transform="translate(19.092969 164.88228)scale(0.11 -0.11)">
       <defs>
        <path d="M 266 1200 
L 856 1250 
Q 922 819 1161 601 
Q 1400 384 1738 384 
Q 2144 384 2425 690 
Q 2706 997 2706 1503 
Q 2706 1984 2436 2262 
Q 2166 2541 1728 2541 
Q 1456 2541 1237 2417 
Q 1019 2294 894 2097 
L 366 2166 
L 809 4519 
L 3088 4519 
L 3088 3981 
L 1259 3981 
L 1013 2750 
Q 1425 3038 1878 3038 
Q 2478 3038 2890 2622 
Q 3303 2206 3303 1553 
Q 3303 931 2941 478 
Q 2500 -78 1738 -78 
Q 1113 -78 717 272 
Q 322 622 266 1200 
z
" id="ArialMT-35" transform="scale(0.015625)"/>
       </defs>
       <use xlink:href="#ArialMT-35"/>
      </g>
     </g>
    </g>
    <g id="ytick_3">
     <g id="line2d_5">
      <path clip-path="url(#p4b8bc9faa2)" d="M 34.71 138.350967 
L 220.395 138.350967 
" style="fill:none;stroke:#ffffff;stroke-linecap:round;"/>
     </g>
     <g id="text_5">
      <!-- 10 -->
      <g style="fill:#262626;" transform="translate(12.975938 142.287764)scale(0.11 -0.11)">
       <defs>
        <path d="M 2384 0 
L 1822 0 
L 1822 3584 
Q 1619 3391 1289 3197 
Q 959 3003 697 2906 
L 697 3450 
Q 1169 3672 1522 3987 
Q 1875 4303 2022 4600 
L 2384 4600 
L 2384 0 
z
" id="ArialMT-31" transform="scale(0.015625)"/>
       </defs>
       <use xlink:href="#ArialMT-31"/>
       <use x="55.615234" xlink:href="#ArialMT-30"/>
      </g>
     </g>
    </g>
    <g id="ytick_4">
     <g id="line2d_6">
      <path clip-path="url(#p4b8bc9faa2)" d="M 34.71 115.75645 
L 220.395 115.75645 
" style="fill:none;stroke:#ffffff;stroke-linecap:round;"/>
     </g>
     <g id="text_6">
      <!-- 15 -->
      <g style="fill:#262626;" transform="translate(12.975938 119.693247)scale(0.11 -0.11)">
       <use xlink:href="#ArialMT-31"/>
       <use x="55.615234" xlink:href="#ArialMT-35"/>
      </g>
     </g>
    </g>
    <g id="ytick_5">
     <g id="line2d_7">
      <path clip-path="url(#p4b8bc9faa2)" d="M 34.71 93.161934 
L 220.395 93.161934 
" style="fill:none;stroke:#ffffff;stroke-linecap:round;"/>
     </g>
     <g id="text_7">
      <!-- 20 -->
      <g style="fill:#262626;" transform="translate(12.975938 97.09873)scale(0.11 -0.11)">
       <use xlink:href="#ArialMT-32"/>
       <use x="55.615234" xlink:href="#ArialMT-30"/>
      </g>
     </g>
    </g>
    <g id="ytick_6">
     <g id="line2d_8">
      <path clip-path="url(#p4b8bc9faa2)" d="M 34.71 70.567417 
L 220.395 70.567417 
" style="fill:none;stroke:#ffffff;stroke-linecap:round;"/>
     </g>
     <g id="text_8">
      <!-- 25 -->
      <g style="fill:#262626;" transform="translate(12.975938 74.504214)scale(0.11 -0.11)">
       <use xlink:href="#ArialMT-32"/>
       <use x="55.615234" xlink:href="#ArialMT-35"/>
      </g>
     </g>
    </g>
    <g id="ytick_7">
     <g id="line2d_9">
      <path clip-path="url(#p4b8bc9faa2)" d="M 34.71 47.9729 
L 220.395 47.9729 
" style="fill:none;stroke:#ffffff;stroke-linecap:round;"/>
     </g>
     <g id="text_9">
      <!-- 30 -->
      <g style="fill:#262626;" transform="translate(12.975938 51.909697)scale(0.11 -0.11)">
       <defs>
        <path d="M 269 1209 
L 831 1284 
Q 928 806 1161 595 
Q 1394 384 1728 384 
Q 2125 384 2398 659 
Q 2672 934 2672 1341 
Q 2672 1728 2419 1979 
Q 2166 2231 1775 2231 
Q 1616 2231 1378 2169 
L 1441 2663 
Q 1497 2656 1531 2656 
Q 1891 2656 2178 2843 
Q 2466 3031 2466 3422 
Q 2466 3731 2256 3934 
Q 2047 4138 1716 4138 
Q 1388 4138 1169 3931 
Q 950 3725 888 3313 
L 325 3413 
Q 428 3978 793 4289 
Q 1159 4600 1703 4600 
Q 2078 4600 2393 4439 
Q 2709 4278 2876 4000 
Q 3044 3722 3044 3409 
Q 3044 3113 2884 2869 
Q 2725 2625 2413 2481 
Q 2819 2388 3044 2092 
Q 3269 1797 3269 1353 
Q 3269 753 2831 336 
Q 2394 -81 1725 -81 
Q 1122 -81 723 278 
Q 325 638 269 1209 
z
" id="ArialMT-33" transform="scale(0.015625)"/>
       </defs>
       <use xlink:href="#ArialMT-33"/>
       <use x="55.615234" xlink:href="#ArialMT-30"/>
      </g>
     </g>
    </g>
   </g>
   <g id="patch_3">
    <path clip-path="url(#p4b8bc9faa2)" d="M 43.150227 183.54 
L 52.627329 183.54 
L 52.627329 169.98329 
L 43.150227 169.98329 
z
" style="fill:#4c72b0;fill-opacity:0.75;stroke:#ffffff;stroke-linejoin:miter;stroke-width:0.898048;"/>
   </g>
   <g id="patch_4">
    <path clip-path="url(#p4b8bc9faa2)" d="M 52.627329 183.54 
L 62.104431 183.54 
L 62.104431 165.464387 
L 52.627329 165.464387 
z
" style="fill:#4c72b0;fill-opacity:0.75;stroke:#ffffff;stroke-linejoin:miter;stroke-width:0.898048;"/>
   </g>
   <g id="patch_5">
    <path clip-path="url(#p4b8bc9faa2)" d="M 62.104431 183.54 
L 71.581533 183.54 
L 71.581533 129.31316 
L 62.104431 129.31316 
z
" style="fill:#4c72b0;fill-opacity:0.75;stroke:#ffffff;stroke-linejoin:miter;stroke-width:0.898048;"/>
   </g>
   <g id="patch_6">
    <path clip-path="url(#p4b8bc9faa2)" d="M 71.581533 183.54 
L 81.058635 183.54 
L 81.058635 124.794257 
L 71.581533 124.794257 
z
" style="fill:#4c72b0;fill-opacity:0.75;stroke:#ffffff;stroke-linejoin:miter;stroke-width:0.898048;"/>
   </g>
   <g id="patch_7">
    <path clip-path="url(#p4b8bc9faa2)" d="M 81.058635 183.54 
L 90.535737 183.54 
L 90.535737 43.453997 
L 81.058635 43.453997 
z
" style="fill:#4c72b0;fill-opacity:0.75;stroke:#ffffff;stroke-linejoin:miter;stroke-width:0.898048;"/>
   </g>
   <g id="patch_8">
    <path clip-path="url(#p4b8bc9faa2)" d="M 90.535737 183.54 
L 100.012839 183.54 
L 100.012839 88.64303 
L 90.535737 88.64303 
z
" style="fill:#4c72b0;fill-opacity:0.75;stroke:#ffffff;stroke-linejoin:miter;stroke-width:0.898048;"/>
   </g>
   <g id="patch_9">
    <path clip-path="url(#p4b8bc9faa2)" d="M 100.012839 183.54 
L 109.489941 183.54 
L 109.489941 47.9729 
L 100.012839 47.9729 
z
" style="fill:#4c72b0;fill-opacity:0.75;stroke:#ffffff;stroke-linejoin:miter;stroke-width:0.898048;"/>
   </g>
   <g id="patch_10">
    <path clip-path="url(#p4b8bc9faa2)" d="M 109.489941 183.54 
L 118.967043 183.54 
L 118.967043 93.161934 
L 109.489941 93.161934 
z
" style="fill:#4c72b0;fill-opacity:0.75;stroke:#ffffff;stroke-linejoin:miter;stroke-width:0.898048;"/>
   </g>
   <g id="patch_11">
    <path clip-path="url(#p4b8bc9faa2)" d="M 118.967043 183.54 
L 128.444145 183.54 
L 128.444145 151.907677 
L 118.967043 151.907677 
z
" style="fill:#4c72b0;fill-opacity:0.75;stroke:#ffffff;stroke-linejoin:miter;stroke-width:0.898048;"/>
   </g>
   <g id="patch_12">
    <path clip-path="url(#p4b8bc9faa2)" d="M 128.444145 183.54 
L 137.921247 183.54 
L 137.921247 160.945483 
L 128.444145 160.945483 
z
" style="fill:#4c72b0;fill-opacity:0.75;stroke:#ffffff;stroke-linejoin:miter;stroke-width:0.898048;"/>
   </g>
   <g id="patch_13">
    <path clip-path="url(#p4b8bc9faa2)" d="M 137.921247 183.54 
L 147.398349 183.54 
L 147.398349 165.464387 
L 137.921247 165.464387 
z
" style="fill:#4c72b0;fill-opacity:0.75;stroke:#ffffff;stroke-linejoin:miter;stroke-width:0.898048;"/>
   </g>
   <g id="patch_14">
    <path clip-path="url(#p4b8bc9faa2)" d="M 147.398349 183.54 
L 156.87545 183.54 
L 156.87545 174.502193 
L 147.398349 174.502193 
z
" style="fill:#4c72b0;fill-opacity:0.75;stroke:#ffffff;stroke-linejoin:miter;stroke-width:0.898048;"/>
   </g>
   <g id="patch_15">
    <path clip-path="url(#p4b8bc9faa2)" d="M 156.87545 183.54 
L 166.352552 183.54 
L 166.352552 179.021097 
L 156.87545 179.021097 
z
" style="fill:#4c72b0;fill-opacity:0.75;stroke:#ffffff;stroke-linejoin:miter;stroke-width:0.898048;"/>
   </g>
   <g id="patch_16">
    <path clip-path="url(#p4b8bc9faa2)" d="M 166.352552 183.54 
L 175.829654 183.54 
L 175.829654 183.54 
L 166.352552 183.54 
z
" style="fill:#4c72b0;fill-opacity:0.75;stroke:#ffffff;stroke-linejoin:miter;stroke-width:0.898048;"/>
   </g>
   <g id="patch_17">
    <path clip-path="url(#p4b8bc9faa2)" d="M 175.829654 183.54 
L 185.306756 183.54 
L 185.306756 179.021097 
L 175.829654 179.021097 
z
" style="fill:#4c72b0;fill-opacity:0.75;stroke:#ffffff;stroke-linejoin:miter;stroke-width:0.898048;"/>
   </g>
   <g id="patch_18">
    <path clip-path="url(#p4b8bc9faa2)" d="M 185.306756 183.54 
L 194.783858 183.54 
L 194.783858 179.021097 
L 185.306756 179.021097 
z
" style="fill:#4c72b0;fill-opacity:0.75;stroke:#ffffff;stroke-linejoin:miter;stroke-width:0.898048;"/>
   </g>
   <g id="patch_19">
    <path clip-path="url(#p4b8bc9faa2)" d="M 194.783858 183.54 
L 204.26096 183.54 
L 204.26096 179.021097 
L 194.783858 179.021097 
z
" style="fill:#4c72b0;fill-opacity:0.75;stroke:#ffffff;stroke-linejoin:miter;stroke-width:0.898048;"/>
   </g>
   <g id="patch_20">
    <path d="M 34.71 183.54 
L 34.71 26.96 
" style="fill:none;stroke:#ffffff;stroke-linecap:square;stroke-linejoin:miter;stroke-width:1.25;"/>
   </g>
   <g id="patch_21">
    <path d="M 34.71 183.54 
L 220.395 183.54 
" style="fill:none;stroke:#ffffff;stroke-linecap:square;stroke-linejoin:miter;stroke-width:1.25;"/>
   </g>
   <g id="text_10">
    <!-- variable = 2014/15 1.PROP -->
    <g style="fill:#262626;" transform="translate(54.343125 20.96)scale(0.12 -0.12)">
     <defs>
      <path d="M 1344 0 
L 81 3319 
L 675 3319 
L 1388 1331 
Q 1503 1009 1600 663 
Q 1675 925 1809 1294 
L 2547 3319 
L 3125 3319 
L 1869 0 
L 1344 0 
z
" id="ArialMT-76" transform="scale(0.015625)"/>
      <path d="M 2588 409 
Q 2275 144 1986 34 
Q 1697 -75 1366 -75 
Q 819 -75 525 192 
Q 231 459 231 875 
Q 231 1119 342 1320 
Q 453 1522 633 1644 
Q 813 1766 1038 1828 
Q 1203 1872 1538 1913 
Q 2219 1994 2541 2106 
Q 2544 2222 2544 2253 
Q 2544 2597 2384 2738 
Q 2169 2928 1744 2928 
Q 1347 2928 1158 2789 
Q 969 2650 878 2297 
L 328 2372 
Q 403 2725 575 2942 
Q 747 3159 1072 3276 
Q 1397 3394 1825 3394 
Q 2250 3394 2515 3294 
Q 2781 3194 2906 3042 
Q 3031 2891 3081 2659 
Q 3109 2516 3109 2141 
L 3109 1391 
Q 3109 606 3145 398 
Q 3181 191 3288 0 
L 2700 0 
Q 2613 175 2588 409 
z
M 2541 1666 
Q 2234 1541 1622 1453 
Q 1275 1403 1131 1340 
Q 988 1278 909 1158 
Q 831 1038 831 891 
Q 831 666 1001 516 
Q 1172 366 1500 366 
Q 1825 366 2078 508 
Q 2331 650 2450 897 
Q 2541 1088 2541 1459 
L 2541 1666 
z
" id="ArialMT-61" transform="scale(0.015625)"/>
      <path d="M 416 0 
L 416 3319 
L 922 3319 
L 922 2816 
Q 1116 3169 1280 3281 
Q 1444 3394 1641 3394 
Q 1925 3394 2219 3213 
L 2025 2691 
Q 1819 2813 1613 2813 
Q 1428 2813 1281 2702 
Q 1134 2591 1072 2394 
Q 978 2094 978 1738 
L 978 0 
L 416 0 
z
" id="ArialMT-72" transform="scale(0.015625)"/>
      <path d="M 425 3934 
L 425 4581 
L 988 4581 
L 988 3934 
L 425 3934 
z
M 425 0 
L 425 3319 
L 988 3319 
L 988 0 
L 425 0 
z
" id="ArialMT-69" transform="scale(0.015625)"/>
      <path d="M 941 0 
L 419 0 
L 419 4581 
L 981 4581 
L 981 2947 
Q 1338 3394 1891 3394 
Q 2197 3394 2470 3270 
Q 2744 3147 2920 2923 
Q 3097 2700 3197 2384 
Q 3297 2069 3297 1709 
Q 3297 856 2875 390 
Q 2453 -75 1863 -75 
Q 1275 -75 941 416 
L 941 0 
z
M 934 1684 
Q 934 1088 1097 822 
Q 1363 388 1816 388 
Q 2184 388 2453 708 
Q 2722 1028 2722 1663 
Q 2722 2313 2464 2622 
Q 2206 2931 1841 2931 
Q 1472 2931 1203 2611 
Q 934 2291 934 1684 
z
" id="ArialMT-62" transform="scale(0.015625)"/>
      <path d="M 409 0 
L 409 4581 
L 972 4581 
L 972 0 
L 409 0 
z
" id="ArialMT-6c" transform="scale(0.015625)"/>
      <path d="M 2694 1069 
L 3275 997 
Q 3138 488 2766 206 
Q 2394 -75 1816 -75 
Q 1088 -75 661 373 
Q 234 822 234 1631 
Q 234 2469 665 2931 
Q 1097 3394 1784 3394 
Q 2450 3394 2872 2941 
Q 3294 2488 3294 1666 
Q 3294 1616 3291 1516 
L 816 1516 
Q 847 969 1125 678 
Q 1403 388 1819 388 
Q 2128 388 2347 550 
Q 2566 713 2694 1069 
z
M 847 1978 
L 2700 1978 
Q 2663 2397 2488 2606 
Q 2219 2931 1791 2931 
Q 1403 2931 1139 2672 
Q 875 2413 847 1978 
z
" id="ArialMT-65" transform="scale(0.015625)"/>
      <path id="ArialMT-20" transform="scale(0.015625)"/>
      <path d="M 3381 2694 
L 356 2694 
L 356 3219 
L 3381 3219 
L 3381 2694 
z
M 3381 1303 
L 356 1303 
L 356 1828 
L 3381 1828 
L 3381 1303 
z
" id="ArialMT-3d" transform="scale(0.015625)"/>
      <path d="M 0 -78 
L 1328 4659 
L 1778 4659 
L 453 -78 
L 0 -78 
z
" id="ArialMT-2f" transform="scale(0.015625)"/>
      <path d="M 581 0 
L 581 641 
L 1222 641 
L 1222 0 
L 581 0 
z
" id="ArialMT-2e" transform="scale(0.015625)"/>
      <path d="M 494 0 
L 494 4581 
L 2222 4581 
Q 2678 4581 2919 4538 
Q 3256 4481 3484 4323 
Q 3713 4166 3852 3881 
Q 3991 3597 3991 3256 
Q 3991 2672 3619 2267 
Q 3247 1863 2275 1863 
L 1100 1863 
L 1100 0 
L 494 0 
z
M 1100 2403 
L 2284 2403 
Q 2872 2403 3119 2622 
Q 3366 2841 3366 3238 
Q 3366 3525 3220 3729 
Q 3075 3934 2838 4000 
Q 2684 4041 2272 4041 
L 1100 4041 
L 1100 2403 
z
" id="ArialMT-50" transform="scale(0.015625)"/>
      <path d="M 503 0 
L 503 4581 
L 2534 4581 
Q 3147 4581 3465 4457 
Q 3784 4334 3975 4021 
Q 4166 3709 4166 3331 
Q 4166 2844 3850 2509 
Q 3534 2175 2875 2084 
Q 3116 1969 3241 1856 
Q 3506 1613 3744 1247 
L 4541 0 
L 3778 0 
L 3172 953 
Q 2906 1366 2734 1584 
Q 2563 1803 2427 1890 
Q 2291 1978 2150 2013 
Q 2047 2034 1813 2034 
L 1109 2034 
L 1109 0 
L 503 0 
z
M 1109 2559 
L 2413 2559 
Q 2828 2559 3062 2645 
Q 3297 2731 3419 2920 
Q 3541 3109 3541 3331 
Q 3541 3656 3305 3865 
Q 3069 4075 2559 4075 
L 1109 4075 
L 1109 2559 
z
" id="ArialMT-52" transform="scale(0.015625)"/>
      <path d="M 309 2231 
Q 309 3372 921 4017 
Q 1534 4663 2503 4663 
Q 3138 4663 3647 4359 
Q 4156 4056 4423 3514 
Q 4691 2972 4691 2284 
Q 4691 1588 4409 1038 
Q 4128 488 3612 205 
Q 3097 -78 2500 -78 
Q 1853 -78 1343 234 
Q 834 547 571 1087 
Q 309 1628 309 2231 
z
M 934 2222 
Q 934 1394 1379 917 
Q 1825 441 2497 441 
Q 3181 441 3623 922 
Q 4066 1403 4066 2288 
Q 4066 2847 3877 3264 
Q 3688 3681 3323 3911 
Q 2959 4141 2506 4141 
Q 1863 4141 1398 3698 
Q 934 3256 934 2222 
z
" id="ArialMT-4f" transform="scale(0.015625)"/>
     </defs>
     <use xlink:href="#ArialMT-76"/>
     <use x="50" xlink:href="#ArialMT-61"/>
     <use x="105.615234" xlink:href="#ArialMT-72"/>
     <use x="138.916016" xlink:href="#ArialMT-69"/>
     <use x="161.132812" xlink:href="#ArialMT-61"/>
     <use x="216.748047" xlink:href="#ArialMT-62"/>
     <use x="272.363281" xlink:href="#ArialMT-6c"/>
     <use x="294.580078" xlink:href="#ArialMT-65"/>
     <use x="350.195312" xlink:href="#ArialMT-20"/>
     <use x="377.978516" xlink:href="#ArialMT-3d"/>
     <use x="436.376953" xlink:href="#ArialMT-20"/>
     <use x="464.160156" xlink:href="#ArialMT-32"/>
     <use x="519.775391" xlink:href="#ArialMT-30"/>
     <use x="575.390625" xlink:href="#ArialMT-31"/>
     <use x="631.005859" xlink:href="#ArialMT-34"/>
     <use x="686.621094" xlink:href="#ArialMT-2f"/>
     <use x="714.404297" xlink:href="#ArialMT-31"/>
     <use x="770.019531" xlink:href="#ArialMT-35"/>
     <use x="825.634766" xlink:href="#ArialMT-20"/>
     <use x="853.417969" xlink:href="#ArialMT-31"/>
     <use x="909.033203" xlink:href="#ArialMT-2e"/>
     <use x="936.816406" xlink:href="#ArialMT-50"/>
     <use x="1003.515625" xlink:href="#ArialMT-52"/>
     <use x="1075.732422" xlink:href="#ArialMT-4f"/>
     <use x="1153.515625" xlink:href="#ArialMT-50"/>
    </g>
   </g>
  </g>
  <g id="axes_2">
   <g id="patch_22">
    <path d="M 233.355 183.54 
L 419.04 183.54 
L 419.04 26.96 
L 233.355 26.96 
z
" style="fill:#eaeaf2;"/>
   </g>
   <g id="matplotlib.axis_3">
    <g id="xtick_3">
     <g id="line2d_10">
      <path clip-path="url(#pabde05c24f)" d="M 296.731346 183.54 
L 296.731346 26.96 
" style="fill:none;stroke:#ffffff;stroke-linecap:round;"/>
     </g>
     <g id="text_11">
      <!-- 20 -->
      <g style="fill:#262626;" transform="translate(290.614315 200.913594)scale(0.11 -0.11)">
       <use xlink:href="#ArialMT-32"/>
       <use x="55.615234" xlink:href="#ArialMT-30"/>
      </g>
     </g>
    </g>
    <g id="xtick_4">
     <g id="line2d_11">
      <path clip-path="url(#pabde05c24f)" d="M 367.514422 183.54 
L 367.514422 26.96 
" style="fill:none;stroke:#ffffff;stroke-linecap:round;"/>
     </g>
     <g id="text_12">
      <!-- 40 -->
      <g style="fill:#262626;" transform="translate(361.397391 200.913594)scale(0.11 -0.11)">
       <use xlink:href="#ArialMT-34"/>
       <use x="55.615234" xlink:href="#ArialMT-30"/>
      </g>
     </g>
    </g>
   </g>
   <g id="matplotlib.axis_4">
    <g id="ytick_8">
     <g id="line2d_12">
      <path clip-path="url(#pabde05c24f)" d="M 233.355 183.54 
L 419.04 183.54 
" style="fill:none;stroke:#ffffff;stroke-linecap:round;"/>
     </g>
    </g>
    <g id="ytick_9">
     <g id="line2d_13">
      <path clip-path="url(#pabde05c24f)" d="M 233.355 160.945483 
L 419.04 160.945483 
" style="fill:none;stroke:#ffffff;stroke-linecap:round;"/>
     </g>
    </g>
    <g id="ytick_10">
     <g id="line2d_14">
      <path clip-path="url(#pabde05c24f)" d="M 233.355 138.350967 
L 419.04 138.350967 
" style="fill:none;stroke:#ffffff;stroke-linecap:round;"/>
     </g>
    </g>
    <g id="ytick_11">
     <g id="line2d_15">
      <path clip-path="url(#pabde05c24f)" d="M 233.355 115.75645 
L 419.04 115.75645 
" style="fill:none;stroke:#ffffff;stroke-linecap:round;"/>
     </g>
    </g>
    <g id="ytick_12">
     <g id="line2d_16">
      <path clip-path="url(#pabde05c24f)" d="M 233.355 93.161934 
L 419.04 93.161934 
" style="fill:none;stroke:#ffffff;stroke-linecap:round;"/>
     </g>
    </g>
    <g id="ytick_13">
     <g id="line2d_17">
      <path clip-path="url(#pabde05c24f)" d="M 233.355 70.567417 
L 419.04 70.567417 
" style="fill:none;stroke:#ffffff;stroke-linecap:round;"/>
     </g>
    </g>
    <g id="ytick_14">
     <g id="line2d_18">
      <path clip-path="url(#pabde05c24f)" d="M 233.355 47.9729 
L 419.04 47.9729 
" style="fill:none;stroke:#ffffff;stroke-linecap:round;"/>
     </g>
    </g>
   </g>
   <g id="patch_23">
    <path clip-path="url(#pabde05c24f)" d="M 250.640041 183.54 
L 261.304023 183.54 
L 261.304023 169.98329 
L 250.640041 169.98329 
z
" style="fill:#4c72b0;fill-opacity:0.75;stroke:#ffffff;stroke-linejoin:miter;stroke-width:0.964459;"/>
   </g>
   <g id="patch_24">
    <path clip-path="url(#pabde05c24f)" d="M 261.304023 183.54 
L 271.968005 183.54 
L 271.968005 179.021097 
L 261.304023 179.021097 
z
" style="fill:#4c72b0;fill-opacity:0.75;stroke:#ffffff;stroke-linejoin:miter;stroke-width:0.964459;"/>
   </g>
   <g id="patch_25">
    <path clip-path="url(#pabde05c24f)" d="M 271.968005 183.54 
L 282.631987 183.54 
L 282.631987 165.464387 
L 271.968005 165.464387 
z
" style="fill:#4c72b0;fill-opacity:0.75;stroke:#ffffff;stroke-linejoin:miter;stroke-width:0.964459;"/>
   </g>
   <g id="patch_26">
    <path clip-path="url(#pabde05c24f)" d="M 282.631987 183.54 
L 293.295969 183.54 
L 293.295969 75.08632 
L 282.631987 75.08632 
z
" style="fill:#4c72b0;fill-opacity:0.75;stroke:#ffffff;stroke-linejoin:miter;stroke-width:0.964459;"/>
   </g>
   <g id="patch_27">
    <path clip-path="url(#pabde05c24f)" d="M 293.295969 183.54 
L 303.959951 183.54 
L 303.959951 142.86987 
L 293.295969 142.86987 
z
" style="fill:#4c72b0;fill-opacity:0.75;stroke:#ffffff;stroke-linejoin:miter;stroke-width:0.964459;"/>
   </g>
   <g id="patch_28">
    <path clip-path="url(#pabde05c24f)" d="M 303.959951 183.54 
L 314.623933 183.54 
L 314.623933 79.605224 
L 303.959951 79.605224 
z
" style="fill:#4c72b0;fill-opacity:0.75;stroke:#ffffff;stroke-linejoin:miter;stroke-width:0.964459;"/>
   </g>
   <g id="patch_29">
    <path clip-path="url(#pabde05c24f)" d="M 314.623933 183.54 
L 325.287916 183.54 
L 325.287916 34.41619 
L 314.623933 34.41619 
z
" style="fill:#4c72b0;fill-opacity:0.75;stroke:#ffffff;stroke-linejoin:miter;stroke-width:0.964459;"/>
   </g>
   <g id="patch_30">
    <path clip-path="url(#pabde05c24f)" d="M 325.287916 183.54 
L 335.951898 183.54 
L 335.951898 66.048514 
L 325.287916 66.048514 
z
" style="fill:#4c72b0;fill-opacity:0.75;stroke:#ffffff;stroke-linejoin:miter;stroke-width:0.964459;"/>
   </g>
   <g id="patch_31">
    <path clip-path="url(#pabde05c24f)" d="M 335.951898 183.54 
L 346.61588 183.54 
L 346.61588 102.19974 
L 335.951898 102.19974 
z
" style="fill:#4c72b0;fill-opacity:0.75;stroke:#ffffff;stroke-linejoin:miter;stroke-width:0.964459;"/>
   </g>
   <g id="patch_32">
    <path clip-path="url(#pabde05c24f)" d="M 346.61588 183.54 
L 357.279862 183.54 
L 357.279862 147.388773 
L 346.61588 147.388773 
z
" style="fill:#4c72b0;fill-opacity:0.75;stroke:#ffffff;stroke-linejoin:miter;stroke-width:0.964459;"/>
   </g>
   <g id="patch_33">
    <path clip-path="url(#pabde05c24f)" d="M 357.279862 183.54 
L 367.943844 183.54 
L 367.943844 165.464387 
L 357.279862 165.464387 
z
" style="fill:#4c72b0;fill-opacity:0.75;stroke:#ffffff;stroke-linejoin:miter;stroke-width:0.964459;"/>
   </g>
   <g id="patch_34">
    <path clip-path="url(#pabde05c24f)" d="M 367.943844 183.54 
L 378.607826 183.54 
L 378.607826 179.021097 
L 367.943844 179.021097 
z
" style="fill:#4c72b0;fill-opacity:0.75;stroke:#ffffff;stroke-linejoin:miter;stroke-width:0.964459;"/>
   </g>
   <g id="patch_35">
    <path clip-path="url(#pabde05c24f)" d="M 378.607826 183.54 
L 389.271808 183.54 
L 389.271808 183.54 
L 378.607826 183.54 
z
" style="fill:#4c72b0;fill-opacity:0.75;stroke:#ffffff;stroke-linejoin:miter;stroke-width:0.964459;"/>
   </g>
   <g id="patch_36">
    <path clip-path="url(#pabde05c24f)" d="M 389.271808 183.54 
L 399.935791 183.54 
L 399.935791 179.021097 
L 389.271808 179.021097 
z
" style="fill:#4c72b0;fill-opacity:0.75;stroke:#ffffff;stroke-linejoin:miter;stroke-width:0.964459;"/>
   </g>
   <g id="patch_37">
    <path clip-path="url(#pabde05c24f)" d="M 399.935791 183.54 
L 410.599773 183.54 
L 410.599773 179.021097 
L 399.935791 179.021097 
z
" style="fill:#4c72b0;fill-opacity:0.75;stroke:#ffffff;stroke-linejoin:miter;stroke-width:0.964459;"/>
   </g>
   <g id="patch_38">
    <path d="M 233.355 183.54 
L 233.355 26.96 
" style="fill:none;stroke:#ffffff;stroke-linecap:square;stroke-linejoin:miter;stroke-width:1.25;"/>
   </g>
   <g id="patch_39">
    <path d="M 233.355 183.54 
L 419.04 183.54 
" style="fill:none;stroke:#ffffff;stroke-linecap:square;stroke-linejoin:miter;stroke-width:1.25;"/>
   </g>
   <g id="text_13">
    <!-- variable = 2018/19 1.PROP -->
    <g style="fill:#262626;" transform="translate(252.988125 20.96)scale(0.12 -0.12)">
     <defs>
      <path d="M 1131 2484 
Q 781 2613 612 2850 
Q 444 3088 444 3419 
Q 444 3919 803 4259 
Q 1163 4600 1759 4600 
Q 2359 4600 2725 4251 
Q 3091 3903 3091 3403 
Q 3091 3084 2923 2848 
Q 2756 2613 2416 2484 
Q 2838 2347 3058 2040 
Q 3278 1734 3278 1309 
Q 3278 722 2862 322 
Q 2447 -78 1769 -78 
Q 1091 -78 675 323 
Q 259 725 259 1325 
Q 259 1772 486 2073 
Q 713 2375 1131 2484 
z
M 1019 3438 
Q 1019 3113 1228 2906 
Q 1438 2700 1772 2700 
Q 2097 2700 2305 2904 
Q 2513 3109 2513 3406 
Q 2513 3716 2298 3927 
Q 2084 4138 1766 4138 
Q 1444 4138 1231 3931 
Q 1019 3725 1019 3438 
z
M 838 1322 
Q 838 1081 952 856 
Q 1066 631 1291 507 
Q 1516 384 1775 384 
Q 2178 384 2440 643 
Q 2703 903 2703 1303 
Q 2703 1709 2433 1975 
Q 2163 2241 1756 2241 
Q 1359 2241 1098 1978 
Q 838 1716 838 1322 
z
" id="ArialMT-38" transform="scale(0.015625)"/>
      <path d="M 350 1059 
L 891 1109 
Q 959 728 1153 556 
Q 1347 384 1650 384 
Q 1909 384 2104 503 
Q 2300 622 2425 820 
Q 2550 1019 2634 1356 
Q 2719 1694 2719 2044 
Q 2719 2081 2716 2156 
Q 2547 1888 2255 1720 
Q 1963 1553 1622 1553 
Q 1053 1553 659 1965 
Q 266 2378 266 3053 
Q 266 3750 677 4175 
Q 1088 4600 1706 4600 
Q 2153 4600 2523 4359 
Q 2894 4119 3086 3673 
Q 3278 3228 3278 2384 
Q 3278 1506 3087 986 
Q 2897 466 2520 194 
Q 2144 -78 1638 -78 
Q 1100 -78 759 220 
Q 419 519 350 1059 
z
M 2653 3081 
Q 2653 3566 2395 3850 
Q 2138 4134 1775 4134 
Q 1400 4134 1122 3828 
Q 844 3522 844 3034 
Q 844 2597 1108 2323 
Q 1372 2050 1759 2050 
Q 2150 2050 2401 2323 
Q 2653 2597 2653 3081 
z
" id="ArialMT-39" transform="scale(0.015625)"/>
     </defs>
     <use xlink:href="#ArialMT-76"/>
     <use x="50" xlink:href="#ArialMT-61"/>
     <use x="105.615234" xlink:href="#ArialMT-72"/>
     <use x="138.916016" xlink:href="#ArialMT-69"/>
     <use x="161.132812" xlink:href="#ArialMT-61"/>
     <use x="216.748047" xlink:href="#ArialMT-62"/>
     <use x="272.363281" xlink:href="#ArialMT-6c"/>
     <use x="294.580078" xlink:href="#ArialMT-65"/>
     <use x="350.195312" xlink:href="#ArialMT-20"/>
     <use x="377.978516" xlink:href="#ArialMT-3d"/>
     <use x="436.376953" xlink:href="#ArialMT-20"/>
     <use x="464.160156" xlink:href="#ArialMT-32"/>
     <use x="519.775391" xlink:href="#ArialMT-30"/>
     <use x="575.390625" xlink:href="#ArialMT-31"/>
     <use x="631.005859" xlink:href="#ArialMT-38"/>
     <use x="686.621094" xlink:href="#ArialMT-2f"/>
     <use x="714.404297" xlink:href="#ArialMT-31"/>
     <use x="770.019531" xlink:href="#ArialMT-39"/>
     <use x="825.634766" xlink:href="#ArialMT-20"/>
     <use x="853.417969" xlink:href="#ArialMT-31"/>
     <use x="909.033203" xlink:href="#ArialMT-2e"/>
     <use x="936.816406" xlink:href="#ArialMT-50"/>
     <use x="1003.515625" xlink:href="#ArialMT-52"/>
     <use x="1075.732422" xlink:href="#ArialMT-4f"/>
     <use x="1153.515625" xlink:href="#ArialMT-50"/>
    </g>
   </g>
  </g>
 </g>
 <defs>
  <clipPath id="p4b8bc9faa2">
   <rect height="156.58" width="185.685" x="34.71" y="26.96"/>
  </clipPath>
  <clipPath id="pabde05c24f">
   <rect height="156.58" width="185.685" x="233.355" y="26.96"/>
  </clipPath>
 </defs>
</svg>
